<svg width="41" height="41" viewBox="0 0 41 41" fill="none" xmlns="http://www.w3.org/2000/svg">
<g filter="url(#filter0_d_755_3292)">
<circle cx="20.5" cy="16.5" r="16.5" fill="#D0273B"/>
<path fill-rule="evenodd" clip-rule="evenodd" d="M23.6595 15.2073C23.6595 15.5423 23.9278 15.8103 24.2632 15.8103C24.5985 15.8103 24.8735 15.5423 24.8735 15.2073C24.8735 14.8724 24.5985 14.5977 24.2632 14.5977C23.9278 14.5977 23.6595 14.8724 23.6595 15.2073ZM22.3583 19.2541C21.8821 19.7298 21.2247 20.0246 20.5004 20.0246C19.7961 20.0246 19.1388 19.7499 18.6357 19.2541C18.1394 18.7516 17.8644 18.095 17.8644 17.3915C17.8577 16.6947 18.1327 16.0381 18.629 15.5356C19.1321 15.0331 19.7961 14.7585 20.5004 14.7585C21.2046 14.7585 21.8686 15.0331 22.365 15.5289C22.8613 16.0314 23.1363 16.6947 23.1363 17.3915C23.1296 18.1218 22.8345 18.7784 22.3583 19.2541ZM20.5004 15.7634C20.0644 15.7634 19.6552 15.9309 19.34 16.2458C19.0315 16.554 18.8638 16.9627 18.8705 17.3848V17.3915C18.8705 17.827 19.0382 18.2357 19.3467 18.5439C19.6552 18.8521 20.0644 19.0196 20.5004 19.0196C21.3991 19.0196 22.1235 18.2893 22.1302 17.3915C22.1302 16.956 21.9625 16.5473 21.654 16.2391C21.3455 15.9309 20.9363 15.7634 20.5004 15.7634Z" fill="white"/>
<path opacity="0.4" d="M24.1491 12.6336L24.082 12.4863C23.9009 12.1044 23.693 11.6622 23.5655 11.4076C23.257 10.8046 22.7271 10.4696 22.0765 10.4629H18.9174C18.2667 10.4696 17.7436 10.8046 17.435 11.4076C17.3009 11.6756 17.0728 12.158 16.885 12.5533L16.8448 12.6336C16.8247 12.6872 16.771 12.714 16.7174 12.714C15.1009 12.714 13.793 14.0272 13.793 15.6352V19.6149C13.793 21.2229 15.1009 22.5361 16.7174 22.5361H24.2832C25.893 22.5361 27.2076 21.2229 27.2076 19.6149V15.6352C27.2076 14.0272 25.893 12.714 24.2832 12.714C24.2228 12.714 24.1759 12.6805 24.1491 12.6336Z" fill="white"/>
</g>
<defs>
<filter id="filter0_d_755_3292" x="0" y="0" width="41" height="41" filterUnits="userSpaceOnUse" color-interpolation-filters="sRGB">
<feFlood flood-opacity="0" result="BackgroundImageFix"/>
<feColorMatrix in="SourceAlpha" type="matrix" values="0 0 0 0 0 0 0 0 0 0 0 0 0 0 0 0 0 0 127 0" result="hardAlpha"/>
<feOffset dy="4"/>
<feGaussianBlur stdDeviation="2"/>
<feComposite in2="hardAlpha" operator="out"/>
<feColorMatrix type="matrix" values="0 0 0 0 0 0 0 0 0 0 0 0 0 0 0 0 0 0 0.25 0"/>
<feBlend mode="normal" in2="BackgroundImageFix" result="effect1_dropShadow_755_3292"/>
<feBlend mode="normal" in="SourceGraphic" in2="effect1_dropShadow_755_3292" result="shape"/>
</filter>
</defs>
</svg>
