<svg width="312" height="312" viewBox="0 0 312 312" fill="none" xmlns="http://www.w3.org/2000/svg">
<path d="M59.9928 233.835C59.9928 231.812 59.7628 229.843 59.3282 227.952H16.7118C16.6124 227.952 16.515 227.912 16.4447 227.842C16.3745 227.771 16.3342 227.674 16.3342 227.575V214.4C11.0225 219.188 7.68262 226.121 7.68262 233.835C7.68262 236.978 8.24383 239.988 9.2597 242.779H58.4157C59.4316 239.988 59.9928 236.978 59.9928 233.835Z" fill="url(#paint0_linear_754_2051)"/>
<path d="M88.9487 39.9551C85.9832 43.404 83.5237 47.2997 81.6816 51.5267L91.7554 42.047C90.7402 41.3984 89.8013 40.6994 88.9487 39.9551Z" fill="url(#paint1_linear_754_2051)"/>
<path d="M98.0778 44.2746C102.011 45.6882 106.561 46.4968 111.408 46.4967C117.055 46.4969 122.298 45.3995 126.635 43.5282C130.974 41.6575 134.401 39.0121 136.434 35.9398C137.791 33.8907 138.532 31.6567 138.533 29.313C138.533 28.2875 138.39 27.2831 138.117 26.3061C135.657 25.4914 133.104 24.8793 130.479 24.4902C131.38 25.9774 131.886 27.6066 131.885 29.313C131.886 31.1657 131.295 32.9296 130.243 34.5169C129.19 36.1051 127.679 37.5212 125.824 38.7059C122.113 41.0739 117.024 42.5231 111.408 42.5241C107.197 42.5238 103.281 41.7074 100.021 40.3015C97.2305 39.0971 94.9191 37.4598 93.3198 35.519C91.9534 36.7306 90.6599 38.0225 89.4467 39.3875C90.3802 40.2022 91.4243 40.965 92.567 41.6652C92.6669 41.7264 92.7333 41.8318 92.7452 41.9484C92.7572 42.065 92.7138 42.1816 92.6284 42.2621L80.9814 53.2222C79.7031 56.5111 78.7947 59.9841 78.3047 63.5904L97.6842 44.3618C97.7876 44.2593 97.9406 44.2254 98.0778 44.2746Z" fill="url(#paint2_linear_754_2051)"/>
<path d="M93.8896 35.0216C94.8104 36.1433 95.9936 37.1735 97.399 38.0706C100.963 40.3474 105.923 41.771 111.408 41.7701C115.522 41.7703 119.341 40.9708 122.497 39.6092C125.653 38.2484 128.142 36.325 129.613 34.101C130.595 32.6174 131.13 31.0052 131.13 29.3141C131.13 27.6229 130.595 26.0105 129.613 24.5268C129.575 24.4687 129.531 24.4122 129.491 24.3546C127.596 24.1158 125.666 23.9922 123.706 23.9922C112.319 23.9921 101.904 28.1471 93.8896 35.0216Z" fill="url(#paint3_linear_754_2051)"/>
<path d="M168.67 78.6823C153.486 76.5065 138.738 72.5087 126.116 66.024L126.876 64.5972C126.324 64.6381 125.694 64.6569 125.002 64.657C121.65 64.6567 116.936 64.2483 114.13 64.0452C113.197 63.9774 112.471 63.9328 112.104 63.9331C112.014 63.9331 111.915 63.9331 111.807 63.9331C111.207 63.9331 110.35 63.9296 109.43 63.8819C108.51 63.8339 107.528 63.7427 106.666 63.562C106.091 63.4406 105.569 63.282 105.143 63.0528C104.899 62.9211 104.684 62.7652 104.516 62.567C104.324 62.3429 104.2 62.0497 104.202 61.7348L104.203 61.7001C104.203 61.7005 104.203 61.7009 104.203 61.7012L104.203 61.6992V61.7C104.215 61.2089 104.353 60.8015 104.569 60.4905C104.676 60.3371 104.799 60.2089 104.93 60.1012C104.609 60.03 104.283 59.9335 103.983 59.791C103.63 59.6215 103.301 59.3871 103.095 59.0312C102.979 58.8291 102.912 58.589 102.912 58.3333C102.912 58.2225 102.924 58.109 102.948 57.9937C102.948 57.9938 102.948 57.9939 102.948 57.9941L102.948 57.9935C102.948 57.9936 102.948 57.9936 102.948 57.9937C103.01 57.691 103.148 57.428 103.336 57.2237C103.523 57.0184 103.755 56.8711 104.001 56.7655C104.171 56.6932 104.35 56.64 104.532 56.5999C104.318 56.4408 104.127 56.251 103.992 56.0088C103.872 55.7938 103.802 55.541 103.802 55.2705C103.802 55.1057 103.828 54.9356 103.877 54.7621C103.974 54.4229 104.145 54.1365 104.363 53.9123C104.581 53.6875 104.841 53.5243 105.115 53.4068C105.398 53.2867 105.696 53.2123 105.993 53.1677C105.752 53.0105 105.535 52.8259 105.381 52.5817C105.275 52.4121 105.204 52.2072 105.205 51.9874C105.204 51.7778 105.268 51.5652 105.385 51.3678C105.502 51.1694 105.668 50.9812 105.888 50.7929C106.094 50.6177 106.347 50.5193 106.631 50.4559C106.915 50.3935 107.236 50.3681 107.594 50.3678C108.283 50.3682 109.11 50.4643 110.03 50.6218C110.949 50.7795 111.959 50.9991 113.002 51.2503C115.087 51.7527 117.304 52.3816 119.167 52.8925C120.408 53.233 121.494 53.5213 122.265 53.6828C122.459 53.724 122.633 53.756 122.783 53.7793C122.607 53.6516 122.38 53.5066 122.123 53.3533C121.448 52.949 120.581 52.4835 119.855 51.9853C119.371 51.6502 118.945 51.3076 118.668 50.9105C118.511 50.6838 118.398 50.4257 118.397 50.1376C118.396 49.9227 118.466 49.7038 118.595 49.5163C118.723 49.3274 118.903 49.1648 119.13 49.0158C119.513 48.768 119.985 48.6838 120.513 48.6824C121.536 48.6848 122.818 49.0121 124.198 49.4891C125.576 49.9672 127.044 50.6004 128.393 51.2327C130.318 52.1356 131.993 53.0341 132.799 53.4767L132.945 53.203C143.819 58.4004 156.166 61.1518 168.921 62.3526C166.194 45.7107 154.505 32.0871 138.971 26.5996C139.179 27.4844 139.288 28.3908 139.288 29.3136C139.288 31.8189 138.49 34.2046 137.064 36.3574C135.637 38.5112 133.583 40.4367 131.058 42.0492C126.008 45.2729 119.068 47.2514 111.408 47.2524C106.569 47.2523 102.018 46.4596 98.0489 45.0643L78.1562 64.8021C77.9768 66.4498 77.8818 68.1229 77.8818 69.8185C77.8818 93.6275 96.0384 113.193 119.26 115.43C131.466 104.369 146.245 96.8612 162.765 93.7913C165.574 89.2235 167.604 84.1256 168.67 78.6823Z" fill="url(#paint4_linear_754_2051)"/>
<path d="M261.01 214.077C259.402 211.565 253.434 202.229 248.679 194.607C242.849 198.437 238.806 204.753 238.054 212.045L261.01 214.077Z" fill="url(#paint5_linear_754_2051)"/>
<path d="M200.367 242.778H279.253C280.154 238.711 280.649 234.493 280.693 230.166C276.187 235.619 269.371 239.095 261.743 239.095C253.894 239.095 246.903 235.416 242.408 229.686C241.525 228.563 240.738 227.36 240.058 226.091C239.185 224.459 238.491 222.717 238.002 220.891V220.891C237.459 218.859 237.167 216.722 237.167 214.52C237.167 213.791 237.199 213.069 237.263 212.355C237.263 212.355 237.263 212.354 237.263 212.354C237.434 210.397 237.834 208.507 238.436 206.708C238.532 206.421 238.636 206.137 238.742 205.855C238.861 205.54 238.986 205.227 239.118 204.918C239.186 204.756 239.257 204.596 239.329 204.436C241.023 200.678 243.631 197.422 246.875 194.955C247.43 194.533 248.003 194.135 248.593 193.76C248.593 193.76 248.593 193.76 248.593 193.76C252.395 191.345 256.907 189.947 261.743 189.947C263.368 189.947 264.956 190.106 266.494 190.407C255.31 177.052 238.514 168.557 219.733 168.557C212.765 168.557 206.071 169.729 199.835 171.882C199.139 170.371 198.336 168.919 197.438 167.535C188.878 189.822 192.128 217.706 200.367 242.778Z" fill="url(#paint6_linear_754_2051)"/>
<path d="M133.866 186.326C133.866 202.346 144.765 215.818 159.551 219.737C159.036 222.926 158.764 226.196 158.764 229.531C158.764 234.081 159.268 238.513 160.213 242.779H171.343C163.338 219.823 158.586 196.866 163.123 173.608C164.483 166.093 166.757 158.735 169.827 151.791C169.363 151.773 168.897 151.762 168.428 151.762C149.34 151.762 133.866 167.236 133.866 186.326Z" fill="url(#paint7_linear_754_2051)"/>
<path d="M237.923 214.52C237.923 216.524 238.174 218.47 238.64 220.329L259.586 214.708L237.99 212.797C237.949 213.367 237.923 213.94 237.923 214.52Z" fill="url(#paint8_linear_754_2051)"/>
<path d="M242.773 228.92L260.055 215.363L238.834 221.059C238.967 221.524 239.111 221.984 239.271 222.437C239.364 222.703 239.464 222.965 239.567 223.226C240.273 225.024 241.191 226.715 242.291 228.268C242.311 228.296 242.332 228.323 242.351 228.35C242.469 228.514 242.588 228.677 242.709 228.838C242.73 228.865 242.752 228.892 242.773 228.92Z" fill="url(#paint9_linear_754_2051)"/>
<path d="M262.06 214.317C262.065 214.324 262.066 214.332 262.07 214.339C262.073 214.344 262.078 214.347 262.08 214.352C262.084 214.36 262.084 214.368 262.088 214.376C262.098 214.402 262.106 214.428 262.111 214.455C262.113 214.468 262.116 214.48 262.117 214.493C262.119 214.523 262.117 214.553 262.112 214.584C262.111 214.592 262.111 214.601 262.109 214.609C262.1 214.646 262.086 214.683 262.066 214.717C262.065 214.718 262.064 214.718 262.063 214.72C262.061 214.723 262.057 214.726 262.055 214.73C262.034 214.76 262.011 214.787 261.984 214.809C261.981 214.812 261.979 214.816 261.976 214.818L243.239 229.515C247.605 234.901 254.269 238.341 261.743 238.341C268.322 238.341 274.274 235.676 278.585 231.365C279.341 230.608 280.046 229.8 280.695 228.948C280.561 214.719 275.555 201.657 267.263 191.347C265.492 190.927 263.644 190.703 261.743 190.703C257.187 190.703 252.935 191.984 249.317 194.204C254.159 201.965 260.265 211.514 261.733 213.806C261.945 214.138 262.06 214.317 262.06 214.317Z" fill="url(#paint10_linear_754_2051)"/>
<path d="M261.454 156.847C260.574 158.665 259.198 161.646 258.576 164.018C258.369 164.806 258.246 165.526 258.247 166.093C258.247 166.422 258.289 166.697 258.364 166.9C258.441 167.104 258.541 167.231 258.674 167.319C258.764 167.377 258.876 167.42 259.029 167.442C259.133 167.456 259.231 167.462 259.322 167.462C259.64 167.461 259.88 167.386 260.088 167.26C260.295 167.133 260.472 166.948 260.627 166.715C260.939 166.25 261.142 165.599 261.307 165.002C261.42 164.602 261.514 164.231 261.643 163.925C261.72 163.751 261.802 163.59 261.96 163.452C262.042 163.381 262.155 163.321 262.282 163.301V163.301C262.283 163.3 262.283 163.3 262.284 163.3C262.285 163.3 262.285 163.3 262.286 163.3V163.3C262.316 163.296 262.344 163.294 262.37 163.294C262.453 163.293 262.532 163.313 262.6 163.343C262.667 163.372 262.723 163.411 262.772 163.452C262.868 163.536 262.939 163.631 263.006 163.738C263.136 163.951 263.246 164.219 263.358 164.543C263.579 165.19 263.793 166.063 264.008 167.051C264.437 169.025 264.863 171.451 265.276 173.295C265.522 174.394 265.891 175.473 266.321 176.421C266.751 177.369 267.245 178.186 267.727 178.757C268.047 179.137 268.363 179.405 268.623 179.534C268.772 179.609 268.898 179.639 269.001 179.639C269.079 179.638 269.146 179.623 269.218 179.589C269.636 179.384 269.89 179.19 270.028 179.018C270.164 178.844 270.211 178.697 270.215 178.465C270.218 178.139 270.076 177.656 269.845 177.011C269.617 176.366 269.311 175.558 269.024 174.538C268.978 174.399 267.93 171.262 267.394 168.72C267.211 167.851 267.086 167.056 267.085 166.439C267.085 166.308 267.091 166.185 267.105 166.067C267.129 165.86 267.316 165.712 267.524 165.736C267.731 165.76 267.879 165.948 267.855 166.155C267.845 166.234 267.841 166.33 267.841 166.439C267.84 166.889 267.928 167.536 268.069 168.252C268.21 168.97 268.404 169.763 268.609 170.53C269.02 172.065 269.478 173.498 269.661 174.058C269.713 174.217 269.742 174.305 269.742 174.305C269.744 174.308 269.744 174.312 269.745 174.315C269.746 174.318 269.747 174.32 269.748 174.323C269.752 174.336 269.756 174.349 269.759 174.363C269.769 174.39 269.789 174.44 269.82 174.5C269.864 174.586 269.926 174.697 270.005 174.823C270.162 175.075 270.381 175.39 270.641 175.728C271.159 176.405 271.842 177.18 272.521 177.783C272.972 178.186 273.426 178.51 273.804 178.679C274.019 178.776 274.207 178.821 274.346 178.82C274.423 178.82 274.486 178.808 274.541 178.787C274.596 178.765 274.645 178.733 274.697 178.682C274.885 178.494 275.009 178.331 275.083 178.186C275.157 178.041 275.187 177.916 275.188 177.767C275.188 177.585 275.135 177.357 275.008 177.059C274.883 176.762 274.688 176.402 274.432 175.963C273.983 175.193 273.347 174.183 272.573 172.807C272.432 172.606 272.319 172.406 272.239 172.205C272.239 172.205 272.239 172.205 272.238 172.204H272.238C272.234 172.194 272.228 172.183 272.224 172.173C272.222 172.169 272.22 172.165 272.218 172.161C272.215 172.152 271.14 169.418 270.594 167.143C270.413 166.382 270.287 165.676 270.286 165.104C270.286 165.079 270.286 165.052 270.287 165.022C270.294 164.814 270.468 164.65 270.677 164.657C270.885 164.663 271.049 164.838 271.042 165.046L271.041 165.104C271.04 165.535 271.139 166.154 271.296 166.831C271.453 167.508 271.667 168.247 271.887 168.944C272.328 170.338 272.797 171.566 272.9 171.832C272.905 171.845 272.909 171.853 272.912 171.862C273.017 172.053 273.119 172.237 273.22 172.416C273.261 172.473 273.305 172.532 273.354 172.591C273.568 172.857 273.845 173.141 274.158 173.417C274.783 173.971 275.555 174.493 276.254 174.811C276.718 175.024 277.152 175.142 277.457 175.14C277.606 175.14 277.72 175.114 277.802 175.074C277.885 175.033 277.942 174.983 277.996 174.894C278.077 174.755 278.124 174.562 278.124 174.316C278.125 173.958 278.022 173.502 277.853 173.028C277.686 172.552 277.455 172.057 277.216 171.601C276.738 170.689 276.226 169.936 276.116 169.777L276.095 169.746C276.093 169.743 276.092 169.739 276.09 169.736C276.084 169.727 276.077 169.719 276.072 169.709C276.07 169.706 275.606 168.852 275.066 167.775C274.527 166.696 273.915 165.404 273.609 164.488C273.522 164.224 273.458 163.992 273.43 163.783C273.402 163.577 273.548 163.387 273.754 163.359C273.961 163.332 274.151 163.477 274.179 163.684C274.193 163.795 274.234 163.964 274.297 164.162C274.36 164.361 274.445 164.593 274.545 164.843C274.745 165.343 275.006 165.919 275.277 166.487C275.818 167.622 276.401 168.724 276.632 169.156C276.667 169.222 276.693 169.271 276.711 169.303L276.722 169.315C276.752 169.345 276.796 169.39 276.853 169.446C276.968 169.558 277.132 169.714 277.33 169.887C277.724 170.233 278.255 170.646 278.764 170.907C279.102 171.083 279.429 171.185 279.672 171.183C279.789 171.183 279.885 171.163 279.97 171.124C280.044 171.09 280.113 171.039 280.181 170.961C280.354 170.541 280.427 170.189 280.427 169.869C280.427 169.493 280.332 169.146 280.146 168.758C279.96 168.372 279.682 167.951 279.338 167.464C278.651 166.487 277.709 165.243 276.779 163.396C276.285 162.413 276.101 161.242 276.1 160.005C276.102 157.596 276.803 154.911 277.498 152.815C277.565 152.615 277.631 152.422 277.697 152.233L266.324 148.029C265.775 149.078 265.078 150.293 264.353 151.555C263.307 153.375 262.21 155.281 261.454 156.847Z" fill="white"/>
<path d="M277.698 152.232C277.632 152.421 277.565 152.614 277.499 152.814C276.803 154.91 276.102 157.594 276.1 160.004C276.101 161.241 276.285 162.411 276.779 163.395C277.709 165.242 278.651 166.486 279.339 167.462C279.682 167.95 279.961 168.37 280.146 168.757C280.332 169.145 280.427 169.492 280.428 169.867C280.428 170.188 280.354 170.54 280.182 170.96C280.113 171.038 280.045 171.088 279.971 171.123C279.886 171.161 279.789 171.182 279.673 171.182C279.43 171.184 279.103 171.082 278.764 170.906C278.255 170.645 277.724 170.232 277.33 169.886C277.132 169.713 276.968 169.557 276.854 169.445C276.797 169.389 276.752 169.344 276.722 169.313L276.711 169.302C276.726 169.33 276.735 169.347 276.735 169.347H276.735C276.835 169.53 276.767 169.759 276.584 169.859C276.411 169.953 276.198 169.896 276.091 169.735C276.093 169.738 276.093 169.742 276.095 169.745L276.117 169.776C276.226 169.934 276.738 170.687 277.216 171.6C277.456 172.055 277.686 172.551 277.854 173.026C278.022 173.501 278.125 173.957 278.124 174.315C278.124 174.56 278.077 174.753 277.996 174.892C277.942 174.982 277.885 175.032 277.803 175.073C277.72 175.113 277.606 175.138 277.457 175.138C277.152 175.14 276.718 175.023 276.254 174.809C275.556 174.491 274.784 173.969 274.158 173.416C273.845 173.14 273.568 172.856 273.354 172.59C273.306 172.53 273.262 172.472 273.22 172.414C273.119 172.235 273.017 172.052 272.912 171.86C272.918 171.874 272.921 171.883 272.921 171.883C272.997 172.078 272.902 172.297 272.708 172.373C272.518 172.447 272.305 172.357 272.224 172.171C272.228 172.182 272.235 172.192 272.239 172.203H272.239C272.239 172.203 272.239 172.203 272.239 172.204C272.319 172.404 272.432 172.605 272.573 172.806C273.347 174.182 273.983 175.192 274.432 175.962C274.688 176.401 274.883 176.761 275.009 177.058C275.135 177.355 275.188 177.583 275.188 177.765C275.187 177.914 275.157 178.039 275.083 178.185C275.009 178.329 274.885 178.493 274.698 178.68C274.646 178.732 274.596 178.763 274.541 178.785C274.486 178.807 274.424 178.819 274.346 178.819C274.207 178.82 274.019 178.775 273.804 178.677C273.426 178.508 272.973 178.184 272.521 177.782C271.842 177.179 271.16 176.404 270.641 175.727C270.381 175.388 270.162 175.074 270.005 174.821C269.927 174.695 269.864 174.585 269.82 174.498C269.79 174.438 269.769 174.389 269.76 174.361C269.756 174.348 269.752 174.335 269.748 174.321C269.747 174.318 269.746 174.316 269.745 174.313C269.804 174.508 269.699 174.716 269.505 174.781C269.307 174.848 269.093 174.741 269.027 174.544C269.027 174.543 269.025 174.54 269.024 174.537C269.311 175.557 269.617 176.365 269.845 177.009C270.076 177.655 270.218 178.138 270.215 178.464C270.211 178.695 270.164 178.843 270.028 179.017C269.89 179.189 269.636 179.382 269.218 179.587C269.147 179.622 269.08 179.637 269.001 179.637C268.899 179.637 268.772 179.607 268.623 179.533C268.363 179.404 268.047 179.136 267.727 178.755C267.246 178.185 266.752 177.367 266.322 176.419C265.891 175.471 265.522 174.392 265.276 173.294C264.863 171.45 264.437 169.023 264.008 167.05C263.793 166.062 263.579 165.189 263.358 164.542C263.247 164.217 263.136 163.95 263.006 163.736C262.939 163.63 262.869 163.534 262.772 163.451C262.723 163.409 262.667 163.371 262.6 163.341C262.533 163.311 262.453 163.292 262.37 163.292C262.344 163.292 262.316 163.294 262.286 163.299V163.298C262.285 163.298 262.285 163.299 262.284 163.299C262.283 163.299 262.283 163.299 262.282 163.299V163.299C262.155 163.319 262.043 163.38 261.96 163.451C261.802 163.588 261.72 163.749 261.643 163.923C261.514 164.229 261.42 164.601 261.307 165C261.142 165.597 260.939 166.248 260.628 166.713C260.472 166.947 260.295 167.132 260.088 167.258C259.88 167.384 259.64 167.46 259.322 167.461C259.231 167.461 259.133 167.454 259.029 167.44C258.877 167.419 258.764 167.376 258.674 167.317C258.541 167.23 258.441 167.103 258.364 166.898C258.289 166.696 258.247 166.421 258.247 166.091C258.247 165.525 258.369 164.805 258.576 164.016C259.198 161.645 260.574 158.663 261.454 156.845C262.21 155.28 263.307 153.374 264.354 151.554C265.079 150.292 265.775 149.077 266.325 148.028L265.61 147.764C265.078 148.773 264.403 149.953 263.699 151.178C262.653 152.998 261.55 154.912 260.774 156.517C260.183 157.739 259.368 159.481 258.698 161.238C258.362 162.116 258.063 162.998 257.846 163.824C257.629 164.651 257.493 165.421 257.492 166.091C257.493 166.611 257.572 167.079 257.801 167.466C257.915 167.658 258.071 167.826 258.263 167.951C258.456 168.076 258.681 168.155 258.927 168.188C259.063 168.207 259.195 168.216 259.322 168.216C259.683 168.216 260.01 168.141 260.293 168.005C260.792 167.766 261.138 167.358 261.389 166.915C261.766 166.248 261.956 165.477 262.125 164.88C262.207 164.583 262.286 164.328 262.359 164.173C262.363 164.163 262.367 164.158 262.372 164.149C262.416 164.223 262.468 164.325 262.52 164.454C262.676 164.831 262.845 165.406 263.013 166.091C263.52 168.151 264.036 171.21 264.54 173.459C264.934 175.215 265.617 176.904 266.395 178.178C266.784 178.815 267.196 179.349 267.624 179.739C267.838 179.934 268.057 180.093 268.285 180.208C268.512 180.322 268.753 180.392 269.001 180.392C269.189 180.393 269.378 180.35 269.552 180.264C270.022 180.031 270.371 179.791 270.616 179.491C270.861 179.192 270.973 178.827 270.97 178.464C270.967 177.976 270.808 177.478 270.597 176.873C270.903 177.233 271.235 177.596 271.581 177.936C272.028 178.374 272.493 178.771 272.954 179.068C273.416 179.362 273.873 179.57 274.347 179.574C274.505 179.574 274.666 179.548 274.818 179.488C274.97 179.428 275.111 179.335 275.232 179.214C275.455 178.99 275.631 178.77 275.755 178.53C275.879 178.291 275.944 178.03 275.943 177.765C275.943 177.438 275.852 177.113 275.704 176.763C275.481 176.238 275.124 175.64 274.651 174.852C274.618 174.798 274.583 174.74 274.549 174.684C274.746 174.823 274.947 174.954 275.151 175.077C275.544 175.313 275.944 175.514 276.332 175.658C276.721 175.802 277.097 175.892 277.458 175.893C277.691 175.893 277.92 175.854 278.13 175.753C278.341 175.653 278.525 175.486 278.649 175.272C278.817 174.981 278.879 174.651 278.879 174.314C278.878 173.788 278.733 173.229 278.528 172.67C278.351 172.188 278.125 171.709 277.895 171.268C278.064 171.379 278.239 171.484 278.419 171.577C278.82 171.782 279.24 171.934 279.673 171.936C279.879 171.937 280.089 171.899 280.286 171.808C280.483 171.718 280.663 171.575 280.808 171.389C280.828 171.364 280.846 171.333 280.858 171.304C281.077 170.792 281.183 170.319 281.183 169.867C281.184 169.357 281.047 168.885 280.827 168.429C280.496 167.744 279.987 167.077 279.397 166.239C278.806 165.401 278.129 164.395 277.454 163.055C277.034 162.224 276.855 161.165 276.855 160.003C276.854 157.739 277.532 155.105 278.216 153.051C278.279 152.86 278.343 152.675 278.406 152.493L277.698 152.232Z" fill="black"/>
<path d="M249.857 46.8379C249.337 46.8375 248.825 46.7747 248.361 46.5967C247.899 46.4203 247.481 46.1155 247.211 45.6562C247.03 45.3515 246.917 44.9862 246.879 44.5662C246.84 44.1411 246.824 43.7423 246.824 43.3689C246.824 41.9228 247.07 40.8547 247.184 40.1585C247.223 39.9278 247.246 39.7396 247.245 39.6065C247.246 39.4798 247.225 39.4115 247.21 39.3863C247.194 39.3619 247.19 39.3493 247.115 39.3161C247.084 39.3038 247.069 39.3034 247.066 39.3033L247.061 39.3041L247.034 39.322C247.004 39.3465 246.953 39.409 246.901 39.5013C246.795 39.6861 246.688 39.9749 246.568 40.2606C246.486 40.452 246.398 40.6439 246.275 40.8189C246.204 40.9186 246.12 41.0143 246.009 41.094C245.885 41.1852 245.716 41.2496 245.54 41.2482C245.444 41.2483 245.349 41.2311 245.259 41.2008C245.11 41.152 244.989 41.0514 244.908 40.9417C244.826 40.8311 244.774 40.7114 244.737 40.5864C244.663 40.3365 244.64 40.0565 244.639 39.7455C244.641 38.9212 244.816 37.875 244.989 37.0186C245.101 36.4695 245.212 36.0035 245.277 35.7385C244.975 35.4806 244.356 34.919 243.712 34.1273C242.869 33.0895 241.975 31.6557 241.737 29.9808C240.862 29.8503 240.064 29.5586 239.358 29.1883C239.053 29.0286 238.77 28.852 238.5 28.6699C238.457 28.7168 238.413 28.7619 238.371 28.81C237.616 29.6687 236.948 30.7283 236.394 31.9098C235.287 34.2727 234.644 37.1227 234.645 39.8133C234.645 40.684 234.712 41.538 234.851 42.3533C235.049 43.5164 235.38 44.4021 235.775 45.0778C236.17 45.7537 236.629 46.2217 237.096 46.5526C238.027 47.2131 239.014 47.3266 239.569 47.3264C239.833 47.3264 239.995 47.301 240.001 47.3001C240.114 47.2814 240.227 47.3143 240.313 47.3901C240.399 47.4661 240.445 47.5754 240.44 47.6899L240.195 53.0106C240.2 53.0115 240.204 53.0126 240.208 53.0136C240.426 53.059 240.693 53.0966 240.997 53.1255C241.605 53.1836 242.357 53.2076 243.166 53.2076C245.361 53.2077 247.973 53.0326 249.428 52.9197C249.643 51.0161 249.934 48.9308 250.329 46.8192C250.172 46.8301 250.014 46.8378 249.857 46.8379Z" fill="white"/>
<path d="M239.733 52.8667C239.822 52.9131 239.985 52.9671 240.195 53.0111L240.44 47.6904C240.445 47.5759 240.399 47.4667 240.313 47.3906C240.228 47.3148 240.114 47.282 240.001 47.3007V47.3006C239.995 47.3015 239.833 47.3269 239.569 47.3269C239.014 47.3271 238.027 47.2136 237.096 46.5531C236.629 46.2222 236.17 45.7542 235.775 45.0784C235.38 44.4026 235.049 43.517 234.851 42.3538C234.712 41.5385 234.645 40.6846 234.645 39.8138C234.644 37.1232 235.287 34.2733 236.395 31.9103C236.948 30.7288 237.616 29.6692 238.371 28.8105C238.413 28.7624 238.457 28.7173 238.5 28.6705C238.284 28.5252 238.078 28.3767 237.884 28.2246C237.858 28.2542 237.83 28.2821 237.804 28.312C236.587 29.6981 235.613 31.521 234.938 33.5228C234.264 35.5247 233.89 37.7064 233.89 39.8138C233.89 40.7233 233.96 41.6191 234.106 42.4807C234.317 43.7181 234.676 44.6937 235.123 45.4594C235.793 46.6089 236.667 47.277 237.49 47.6423C238.313 48.009 239.079 48.0818 239.57 48.082C239.603 48.082 239.635 48.0815 239.666 48.0808L239.447 52.8431C239.539 52.8141 239.641 52.8196 239.733 52.8667Z" fill="black"/>
<path d="M250.329 46.8198C249.934 48.9314 249.643 51.0167 249.428 52.9202C249.743 52.8957 250.004 52.8742 250.195 52.858C250.414 50.9399 250.711 48.8428 251.114 46.7305C250.856 46.7708 250.594 46.8018 250.329 46.8198Z" fill="black"/>
<path d="M129.958 52.835C128.215 51.9551 125.962 50.8998 123.951 50.2025C122.613 49.7365 121.375 49.4351 120.513 49.4375C120.069 49.4361 119.737 49.5187 119.545 49.6477C119.376 49.7575 119.275 49.8596 119.221 49.9398C119.167 50.0215 119.154 50.0761 119.153 50.1376C119.153 50.1881 119.165 50.2485 119.199 50.3247C119.233 50.4004 119.29 50.4895 119.369 50.5853C119.526 50.7776 119.772 50.9935 120.068 51.2097C120.66 51.6443 121.445 52.0833 122.138 52.4858C122.602 52.7556 123.024 53.0073 123.341 53.2525C123.522 53.3953 123.672 53.5296 123.783 53.7096C123.841 53.8058 123.89 53.9245 123.891 54.0683L123.889 54.1093L123.888 54.1271C123.88 54.227 123.828 54.3344 123.761 54.401C123.694 54.4695 123.624 54.5049 123.563 54.5279C123.439 54.5716 123.335 54.577 123.219 54.5784C123.005 54.5778 122.751 54.5436 122.439 54.4868C122.128 54.4298 121.764 54.3486 121.353 54.2489C120.532 54.0495 119.528 53.7755 118.426 53.4716C116.223 52.8639 113.63 52.1367 111.383 51.6546C109.887 51.3327 108.539 51.1221 107.595 51.1231C107.274 51.1229 107.002 51.1474 106.794 51.1935C106.585 51.2387 106.447 51.3073 106.38 51.3662C106.206 51.5145 106.098 51.6459 106.037 51.7501C105.976 51.8552 105.961 51.9284 105.96 51.9877C105.961 52.0478 105.976 52.1042 106.019 52.1766C106.061 52.2479 106.134 52.3301 106.234 52.4124C106.433 52.5783 106.737 52.7386 107.052 52.8669C107.574 53.0804 108.125 53.2137 108.342 53.2615C108.389 53.2709 108.424 53.2783 108.44 53.282L117.182 54.8484C117.387 54.8852 117.523 55.0814 117.487 55.2866C117.45 55.4919 117.254 55.6284 117.048 55.5916L108.3 54.024C108.3 54.0238 108.299 54.0234 108.298 54.0233C108.297 54.0231 108.296 54.0232 108.295 54.0231C108.293 54.0225 108.254 54.0149 108.19 54.0011C108.184 53.9997 108.178 53.9986 108.171 53.9972C108.097 53.9827 107.987 53.9631 107.853 53.9433C107.585 53.904 107.215 53.8647 106.822 53.8648C106.458 53.8646 106.073 53.899 105.735 53.9909C105.395 54.0826 105.107 54.2294 104.906 54.4379C104.771 54.578 104.669 54.7456 104.604 54.9699C104.571 55.0839 104.558 55.1832 104.558 55.2707C104.559 55.4108 104.59 55.5236 104.647 55.6326C104.705 55.7409 104.793 55.845 104.911 55.9436C105.146 56.1414 105.501 56.3064 105.874 56.4238C105.995 56.4625 106.118 56.496 106.238 56.5255C106.903 56.5804 107.433 56.6979 107.555 56.7258L115.627 57.5359C115.835 57.5567 115.986 57.7418 115.965 57.9493C115.945 58.1567 115.76 58.3081 115.552 58.2872L107.463 57.4756C107.409 57.4725 107.06 57.4509 106.593 57.3702C106.45 57.3452 106.295 57.313 106.136 57.2761C105.959 57.2622 105.776 57.252 105.59 57.2521C105.235 57.2518 104.878 57.2845 104.578 57.3648C104.276 57.4448 104.041 57.5707 103.894 57.7334C103.794 57.8431 103.726 57.9692 103.689 58.1458L103.688 58.1463C103.674 58.2156 103.668 58.2776 103.668 58.3335C103.669 58.4632 103.698 58.5616 103.751 58.6568C103.805 58.7513 103.889 58.8427 104.004 58.929C104.233 59.1026 104.587 59.2431 104.963 59.3361C105.65 59.5089 106.398 59.5345 106.634 59.537C106.644 59.5369 106.657 59.5365 106.666 59.5364C106.704 59.5364 106.727 59.5373 106.733 59.5377C106.733 59.5377 106.733 59.5377 106.734 59.5377L115.113 59.9119C115.322 59.9212 115.483 60.0976 115.474 60.306C115.464 60.5143 115.288 60.6756 115.08 60.6663L106.709 60.2925L106.69 60.2925C106.676 60.2925 106.657 60.2925 106.635 60.2922C106.55 60.2936 106.392 60.3015 106.204 60.3383C105.992 60.379 105.75 60.4563 105.545 60.5862C105.408 60.673 105.287 60.7811 105.19 60.9209C105.062 61.1076 104.969 61.3538 104.958 61.7207L104.958 61.7228L104.958 61.7348L104.958 61.7351C104.96 61.8644 104.997 61.9615 105.094 62.0799C105.191 62.196 105.357 62.3195 105.584 62.4308C106.036 62.6558 106.717 62.8264 107.469 62.9386C108.976 63.1663 110.771 63.1788 111.808 63.1783C111.915 63.1783 112.014 63.1782 112.105 63.1782C112.522 63.1785 113.245 63.2244 114.185 63.2923C115.123 63.3604 116.27 63.4508 117.506 63.5412C119.978 63.7221 122.806 63.9024 125.003 63.9022C125.775 63.9023 126.468 63.8797 127.036 63.8285C127.132 63.8133 127.226 63.7919 127.321 63.7639L132.444 54.1436C132.344 54.0884 132.23 54.0263 132.103 53.9573C131.576 53.671 130.831 53.2749 129.958 52.835Z" fill="white"/>
<path d="M127.321 63.7632C127.226 63.7913 127.131 63.8126 127.036 63.8278C126.468 63.879 125.775 63.9016 125.003 63.9015C122.805 63.9017 119.977 63.7214 117.506 63.5406C116.27 63.4502 115.123 63.3597 114.185 63.2917C113.245 63.2237 112.522 63.1779 112.105 63.1776C112.014 63.1776 111.915 63.1776 111.808 63.1776C110.77 63.178 108.976 63.1656 107.469 62.9379C106.717 62.8257 106.036 62.6552 105.583 62.4301C105.357 62.3188 105.191 62.1953 105.094 62.0792C104.996 61.9608 104.96 61.8637 104.958 61.7344L104.958 61.7341L104.958 61.7221L104.958 61.72C104.968 61.3531 105.062 61.1069 105.19 60.9202C105.287 60.7805 105.408 60.6723 105.545 60.5855C105.75 60.4555 105.992 60.3783 106.204 60.3376C106.392 60.3008 106.55 60.2928 106.634 60.2916C106.657 60.2918 106.676 60.2919 106.69 60.2919L106.708 60.2918L106.7 60.2914C106.491 60.2821 106.33 60.1057 106.339 59.8973C106.349 59.6891 106.525 59.5278 106.733 59.537C106.727 59.5367 106.704 59.5357 106.666 59.5357C106.657 59.5358 106.644 59.5362 106.634 59.5364C106.398 59.5338 105.65 59.5082 104.963 59.3354C104.587 59.2425 104.232 59.1019 104.004 58.9283C103.888 58.842 103.805 58.7506 103.751 58.6561C103.698 58.5609 103.669 58.4625 103.668 58.3328C103.668 58.277 103.674 58.215 103.688 58.1456L103.688 58.1451C103.725 57.9686 103.794 57.8424 103.893 57.7328C104.041 57.57 104.276 57.4441 104.578 57.3641C104.878 57.2838 105.235 57.2511 105.59 57.2514C105.776 57.2513 105.959 57.2615 106.136 57.2754C106.295 57.3123 106.45 57.3446 106.593 57.3695C107.06 57.4502 107.409 57.4719 107.463 57.4749L107.456 57.4741C107.248 57.4533 107.097 57.2682 107.118 57.0607C107.138 56.8532 107.323 56.7019 107.531 56.7227L107.554 56.7251C107.433 56.6972 106.903 56.5797 106.238 56.5248C106.117 56.4951 105.995 56.4618 105.873 56.4231C105.5 56.3058 105.146 56.1406 104.911 55.9428C104.793 55.8442 104.705 55.7401 104.647 55.6318C104.59 55.5229 104.558 55.4101 104.558 55.2699C104.558 55.1825 104.571 55.0832 104.604 54.9691C104.668 54.7447 104.771 54.5771 104.906 54.4372C105.107 54.2286 105.394 54.0818 105.734 53.9902C106.073 53.8983 106.457 53.8638 106.822 53.864C107.215 53.864 107.584 53.9032 107.853 53.9426C107.987 53.9622 108.096 53.9819 108.171 53.9964C108.178 53.9978 108.184 53.999 108.19 54.0003C108.254 54.0141 108.293 54.0218 108.295 54.0223C108.296 54.0225 108.297 54.0224 108.298 54.0225C108.094 53.9846 107.959 53.7894 107.995 53.585C108.032 53.3797 108.228 53.2432 108.433 53.28L108.44 53.2812C108.424 53.2776 108.389 53.2701 108.342 53.2607C108.125 53.2129 107.574 53.0797 107.052 52.8661C106.736 52.7379 106.433 52.5776 106.234 52.4117C106.134 52.3294 106.061 52.2471 106.019 52.1758C105.976 52.1034 105.961 52.047 105.96 51.9869C105.96 51.9276 105.976 51.8545 106.037 51.7493C106.097 51.6451 106.206 51.5137 106.38 51.3655C106.446 51.3065 106.584 51.2379 106.793 51.1928C107.001 51.1467 107.274 51.1222 107.595 51.1223C108.539 51.1213 109.887 51.332 111.383 51.6538C113.63 52.136 116.222 52.8631 118.426 53.4708C119.528 53.7747 120.532 54.0487 121.353 54.2482C121.764 54.348 122.128 54.4291 122.439 54.4861C122.751 54.5429 123.005 54.577 123.219 54.5777C123.335 54.5763 123.439 54.5708 123.562 54.5271C123.623 54.5041 123.694 54.4688 123.761 54.4003C123.828 54.3335 123.88 54.2261 123.888 54.1264L123.889 54.1086L123.89 54.0675C123.89 53.9238 123.841 53.805 123.783 53.7088C123.672 53.5289 123.522 53.3946 123.341 53.2517C123.024 53.0065 122.602 52.7549 122.138 52.485C121.444 52.0824 120.659 51.6435 120.067 51.2089C119.772 50.9928 119.526 50.7769 119.368 50.5845C119.29 50.4887 119.233 50.3996 119.199 50.3239C119.165 50.2477 119.153 50.1874 119.153 50.1368C119.154 50.0753 119.167 50.0207 119.221 49.9391C119.275 49.8588 119.376 49.7566 119.544 49.647C119.737 49.518 120.069 49.4354 120.513 49.4368C121.375 49.4343 122.613 49.7357 123.951 50.2017C125.962 50.899 128.214 51.9544 129.958 52.8342C130.83 53.2741 131.576 53.6703 132.103 53.9562C132.23 54.0251 132.344 54.0872 132.444 54.1424L132.799 53.4759C131.994 53.0333 130.318 52.1349 128.393 51.2319C127.045 50.5997 125.577 49.9665 124.199 49.4883C122.818 49.0113 121.537 48.6841 120.513 48.6816C119.986 48.683 119.514 48.7672 119.131 49.015C118.904 49.164 118.724 49.3266 118.595 49.5155C118.467 49.7031 118.396 49.9219 118.398 50.1368C118.398 50.4249 118.512 50.683 118.668 50.9097C118.946 51.3067 119.372 51.6495 119.856 51.9845C120.582 52.4827 121.449 52.9482 122.124 53.3525C122.38 53.5059 122.608 53.6508 122.784 53.7786C122.634 53.7552 122.46 53.7233 122.266 53.6821C121.494 53.5205 120.409 53.2322 119.168 52.8918C117.305 52.3809 115.087 51.752 113.002 51.2496C111.959 50.9983 110.95 50.7787 110.031 50.621C109.111 50.4636 108.284 50.3675 107.595 50.3671C107.237 50.3673 106.916 50.3927 106.631 50.4551C106.348 50.5185 106.094 50.6169 105.888 50.7921C105.669 50.9804 105.502 51.1686 105.386 51.367C105.269 51.5645 105.205 51.777 105.205 51.9867C105.205 52.2064 105.275 52.4114 105.382 52.5809C105.536 52.8251 105.753 53.0097 105.993 53.167C105.696 53.2115 105.399 53.2859 105.116 53.406C104.842 53.5235 104.581 53.6867 104.364 53.9115C104.146 54.1357 103.974 54.4221 103.878 54.7614C103.828 54.9349 103.803 55.105 103.803 55.2697C103.802 55.5403 103.873 55.7931 103.993 56.008C104.128 56.2501 104.319 56.44 104.533 56.5991C104.35 56.6392 104.172 56.6924 104.002 56.7647C103.755 56.8704 103.524 57.0177 103.336 57.223C103.148 57.4272 103.01 57.6902 102.949 57.9929C102.925 58.1083 102.913 58.2217 102.913 58.3325C102.912 58.5883 102.98 58.8283 103.096 59.0304C103.301 59.3864 103.63 59.6208 103.983 59.7902C104.284 59.9328 104.61 60.0292 104.93 60.1004C104.799 60.2081 104.676 60.3363 104.57 60.4898C104.353 60.8007 104.215 61.2081 104.204 61.6992L104.203 61.7339C104.201 62.0489 104.325 62.342 104.517 62.5661C104.685 62.7644 104.9 62.9202 105.143 63.0519C105.57 63.2811 106.092 63.4397 106.667 63.5612C107.529 63.7418 108.511 63.8331 109.431 63.881C110.351 63.9288 111.208 63.9323 111.808 63.9323C111.916 63.9323 112.015 63.9322 112.105 63.9322C112.471 63.9319 113.198 63.9765 114.13 64.0444C116.936 64.2475 121.65 64.6558 125.003 64.6561C125.695 64.656 126.324 64.6373 126.877 64.5963L127.321 63.7632Z" fill="black"/>
<path d="M58.4158 242.779H9.25978H9.15682C8.94825 242.779 8.7793 242.948 8.7793 243.157C8.7793 243.365 8.94832 243.534 9.15682 243.534H87.1456C87.0915 243.283 87.0365 243.032 86.9835 242.779H58.4158Z" fill="black"/>
<path d="M289.328 242.779H279.253H200.367C200.45 243.031 200.534 243.283 200.618 243.534H289.328C289.536 243.534 289.706 243.365 289.706 243.157C289.706 242.948 289.536 242.779 289.328 242.779Z" fill="black"/>
<path d="M171.343 242.779H160.213H114.439C114.506 243.031 114.574 243.283 114.642 243.534H171.606C171.518 243.283 171.431 243.031 171.343 242.779Z" fill="black"/>
<path d="M132.8 53.4768L132.445 54.1433L127.321 63.7636L126.877 64.5973L126.117 66.0241C138.738 72.5088 153.487 76.5067 168.671 78.6824C180.545 80.3839 192.684 80.9704 204.282 80.7567C204.761 80.1268 205.245 79.4982 205.74 78.8739C210.876 72.3985 216.876 66.3127 223.431 62.4636C225.204 61.423 227.019 60.5496 228.869 59.8748C210.735 62.2295 189.307 64.2718 168.922 62.3528C156.167 61.1519 143.82 58.4005 132.945 53.2031L132.8 53.4768Z" fill="black"/>
<path d="M185.698 274.771L185.681 274.786C185.669 274.797 185.651 274.813 185.627 274.834C185.58 274.875 185.511 274.937 185.426 275.015C185.255 275.172 185.018 275.396 184.755 275.664C184.229 276.198 183.6 276.909 183.198 277.577C182.928 278.02 182.771 278.445 182.775 278.734C182.775 278.838 182.792 278.924 182.823 279C182.901 279.186 182.818 279.401 182.636 279.487C182.08 279.748 181.562 280.028 181.072 280.32C181.089 280.714 181.097 281.115 181.097 281.51C181.097 281.557 181.096 281.603 181.096 281.65C181.26 281.744 181.425 281.837 181.592 281.926C183.347 282.867 185.176 283.509 185.381 283.58L185.401 283.587H185.401C185.598 283.654 185.704 283.868 185.637 284.066C185.57 284.263 185.356 284.369 185.158 284.302C185.152 284.3 184.348 284.027 183.267 283.563C182.604 283.278 181.837 282.921 181.083 282.508C181.043 283.991 180.931 285.177 180.931 285.182C180.911 285.39 180.727 285.542 180.519 285.523C180.312 285.503 180.159 285.319 180.179 285.111C180.179 285.111 180.181 285.086 180.186 285.035C180.19 284.984 180.196 284.91 180.204 284.814C180.219 284.623 180.24 284.348 180.26 284.014C180.293 283.483 180.325 282.802 180.337 282.075C180.118 281.941 179.903 281.805 179.697 281.662C179.599 281.594 179.504 281.526 179.41 281.456C177.613 282.863 176.366 284.495 175.512 286.203C174.221 288.788 173.831 291.555 173.831 293.94C173.83 296.647 174.333 298.855 174.565 299.728L215.612 281.936L205.966 263.02L185.743 271.706L185.83 274.473C185.833 274.587 185.785 274.697 185.698 274.771Z" fill="white"/>
<path d="M180.339 281.184C180.338 281.052 180.335 280.92 180.332 280.787C180.235 280.852 180.139 280.917 180.045 280.984C180.141 281.051 180.239 281.118 180.339 281.184Z" fill="white"/>
<path d="M205.966 263.019L215.612 281.936L174.565 299.728C174.334 298.855 173.831 296.647 173.831 293.94C173.831 291.554 174.221 288.788 175.512 286.203C176.366 284.495 177.613 282.863 179.41 281.456C179.197 281.299 178.997 281.136 178.809 280.969C176.994 282.423 175.712 284.109 174.837 285.866C173.477 288.591 173.076 291.474 173.076 293.94C173.077 297.59 173.954 300.337 173.96 300.361C173.993 300.462 174.067 300.546 174.164 300.59C174.261 300.634 174.372 300.635 174.47 300.592L216.281 282.469C216.377 282.427 216.452 282.348 216.487 282.25C216.522 282.152 216.515 282.043 216.468 281.951L206.662 262.721L205.966 263.019Z" fill="black"/>
<path d="M181.072 280.321C181.562 280.029 182.08 279.749 182.636 279.487C182.818 279.402 182.901 279.187 182.824 279C182.792 278.925 182.775 278.839 182.775 278.735C182.771 278.446 182.928 278.021 183.198 277.578C183.6 276.91 184.229 276.199 184.755 275.665C185.018 275.397 185.255 275.173 185.426 275.016C185.511 274.938 185.58 274.876 185.627 274.834C185.651 274.814 185.669 274.798 185.681 274.787L185.698 274.772C185.785 274.698 185.833 274.588 185.83 274.474L185.743 271.707L184.998 272.027L185.07 274.32C184.812 274.55 184.23 275.088 183.643 275.748C183.251 276.189 182.857 276.683 182.552 277.188C182.249 277.694 182.024 278.209 182.02 278.735C182.02 278.804 182.026 278.873 182.035 278.942C181.684 279.114 181.343 279.291 181.018 279.476C181.042 279.751 181.06 280.034 181.072 280.321Z" fill="black"/>
<path d="M180.045 280.984C180.139 280.918 180.235 280.852 180.332 280.787C180.324 280.49 180.313 280.195 180.294 279.908C179.99 280.1 179.702 280.299 179.422 280.502C179.614 280.665 179.822 280.826 180.045 280.984Z" fill="black"/>
<path d="M92.6268 259.173C92.6268 259.217 92.6275 259.262 92.6285 259.308C92.6307 259.41 92.6516 259.491 92.6865 259.567C92.7217 259.642 92.7728 259.713 92.8415 259.78C92.9775 259.916 93.1873 260.035 93.4138 260.121C93.8666 260.297 94.3684 260.344 94.4104 260.346L94.4128 260.346C94.5674 260.357 94.6995 260.46 94.7466 260.608C94.7936 260.756 94.7458 260.917 94.6258 261.015C94.5972 261.038 93.7424 261.732 90.5009 263.548C89.5618 264.114 88.7159 264.716 87.9507 265.345C87.9729 265.612 87.9908 265.891 88.0039 266.183C90.5485 266.909 93.2401 267.337 93.8361 267.426C93.9163 267.438 93.9576 267.444 93.9577 267.444H93.9579C94.1643 267.474 94.3078 267.665 94.2784 267.871C94.249 268.078 94.0578 268.221 93.8514 268.192C93.8465 268.191 92.7882 268.041 91.3213 267.748C90.3416 267.553 89.1808 267.293 88.027 266.973C88.0292 267.122 88.0306 267.275 88.0307 267.43C88.0307 268.012 88.0151 268.636 87.9822 269.302C87.9717 269.51 87.7945 269.671 87.5862 269.661C87.3778 269.65 87.2173 269.473 87.2277 269.265C87.2604 268.61 87.2757 267.999 87.2757 267.43C87.2757 267.196 87.2727 266.971 87.2675 266.752C87.0493 266.685 86.834 266.616 86.6208 266.545C84.9321 268.219 83.7378 270.039 82.9043 271.879C81.5388 274.896 81.1425 277.97 81.1426 280.514C81.1423 283.164 81.5723 285.229 81.7705 286.04L121.925 272.824L114.034 251.035L92.7893 257.193C92.7829 257.239 92.7767 257.285 92.7703 257.333C92.698 257.879 92.6266 258.579 92.6268 259.173Z" fill="white"/>
<path d="M87.2348 265.952C87.2162 265.625 87.1921 265.314 87.1616 265.023C86.9084 265.24 86.6642 265.46 86.4287 265.682C86.6906 265.776 86.9603 265.866 87.2348 265.952Z" fill="black"/>
<path d="M114.034 251.035L121.925 272.824L81.7705 286.04C81.5723 285.229 81.1424 283.164 81.1427 280.514C81.1425 277.97 81.5389 274.896 82.9044 271.879C83.7379 270.039 84.9321 268.219 86.6208 266.545C86.5247 266.513 86.4272 266.482 86.3324 266.449C86.1631 266.39 85.9974 266.33 85.8337 266.268C84.2112 267.938 83.0402 269.745 82.2163 271.568C80.7942 274.711 80.3878 277.893 80.3877 280.514C80.3882 284.076 81.1386 286.608 81.145 286.632C81.174 286.73 81.2412 286.811 81.332 286.859C81.4225 286.906 81.5279 286.915 81.6251 286.883L122.53 273.42C122.627 273.388 122.707 273.318 122.752 273.226C122.797 273.134 122.802 273.029 122.767 272.932L114.761 250.824L114.034 251.035Z" fill="black"/>
<path d="M87.9505 265.345C88.7157 264.716 89.5617 264.114 90.5007 263.548C93.7422 261.732 94.597 261.038 94.6256 261.015C94.7456 260.917 94.7934 260.755 94.7464 260.608C94.6993 260.46 94.5672 260.356 94.4126 260.346L94.4102 260.346C94.3683 260.343 93.8664 260.296 93.4136 260.121C93.1871 260.035 92.9773 259.916 92.8413 259.78C92.7725 259.712 92.7215 259.642 92.6863 259.567C92.6513 259.491 92.6305 259.409 92.6283 259.307C92.6272 259.262 92.6266 259.217 92.6266 259.172C92.6264 258.578 92.6978 257.879 92.7699 257.333C92.7763 257.285 92.7825 257.239 92.7889 257.193L91.9973 257.423C91.9317 257.955 91.8718 258.591 91.8716 259.172C91.8716 259.224 91.8722 259.274 91.8732 259.323C91.8769 259.532 91.9262 259.73 92.0092 259.901C92.1553 260.204 92.3928 260.42 92.6433 260.579C92.9024 260.742 93.1802 260.848 93.437 260.923C92.8422 261.312 91.8147 261.947 90.1245 262.893L90.1143 262.899C89.2962 263.391 88.5466 263.912 87.8545 264.455C87.8926 264.735 87.9246 265.031 87.9505 265.345Z" fill="black"/>
<path d="M190.001 122.789L188.331 104.576L195.459 101.311C194.673 100.254 193.943 99.1554 193.277 98.0152C193.21 97.8997 193.209 97.7555 193.275 97.6391C194.016 96.3272 194.83 94.929 195.707 93.4735C184.179 91.6878 173.129 91.8654 162.765 93.7914C146.246 96.8612 131.467 104.369 119.26 115.43C103.391 129.809 91.8698 150.194 86.524 174.642C81.3188 194.844 82.307 220.56 86.9832 242.779C87.0363 243.031 87.0913 243.282 87.1453 243.534C88.2102 248.486 89.4555 253.261 90.8587 257.753L91.9973 257.423L92.7889 257.193L114.034 251.035L114.761 250.824L116.682 250.267C115.939 248.054 115.26 245.807 114.642 243.534C114.574 243.282 114.506 243.031 114.439 242.779C99.482 186.396 122.566 113.986 190.001 122.789Z" fill="black"/>
<path d="M200.367 242.778C192.128 217.707 188.878 189.822 197.438 167.535C202.873 153.386 213.067 141.493 229.77 134.01L229.768 134.005C237.525 130.075 240.762 120.721 241.681 117.457C241.163 118.253 240.655 119.021 240.164 119.75C240.098 119.847 239.992 119.909 239.875 119.916C238.746 119.988 237.61 120.024 236.469 120.024C228.021 120.024 219.3 118.064 211.649 114.336C205.23 111.207 199.563 106.829 195.459 101.311L188.331 104.576L190.001 122.789L190.014 122.931C181.567 130.821 174.694 140.785 169.827 151.791C166.756 158.735 164.482 166.092 163.123 173.608C158.585 196.865 163.338 219.823 171.343 242.778C171.431 243.03 171.518 243.282 171.606 243.533C175.037 253.286 179.043 263.039 183.161 272.815L184.998 272.026L185.743 271.706L205.966 263.019L206.662 262.721L207.938 262.172C205.248 256.249 202.77 249.987 200.618 243.533C200.534 243.282 200.45 243.03 200.367 242.778Z" fill="black"/>
<path d="M252.974 66.2119C252.709 65.8808 252.429 65.5574 252.131 65.2423C252.091 65.2636 252.047 65.2788 251.999 65.2844C251.792 65.3086 251.604 65.1604 251.58 64.9532L251.557 64.7558L236.853 59.0898C236.728 59.0919 236.604 59.0933 236.48 59.0974C236.468 59.1072 236.456 59.1176 236.445 59.1261C236.399 59.1586 236.353 59.186 236.285 59.2034C236.163 59.2332 236.041 59.1991 235.952 59.1237C231.784 59.3689 227.713 60.8258 223.813 63.115C219.526 65.6305 215.451 69.1451 211.701 73.1154C204.265 80.9855 198.109 90.6406 194.042 97.8176C198.097 104.665 204.506 110.015 211.98 113.657C219.52 117.333 228.137 119.27 236.468 119.269C237.532 119.269 238.591 119.235 239.642 119.172C243.112 114.007 247.344 107.121 250.718 99.8325C252.319 96.3757 253.724 92.8282 254.765 89.3348C253.6 88.3923 252.365 87.4923 251.056 86.6398C250.212 79.8712 250.305 72.3937 252.974 66.2119Z" fill="white"/>
<path d="M252.331 64.8653C252.349 65.0246 252.266 65.1716 252.132 65.2423C252.429 65.5574 252.71 65.8807 252.975 66.2119C253.002 66.1495 253.027 66.0864 253.055 66.0243C253.436 66.2007 253.81 66.3827 254.185 66.5641C253.627 65.7675 252.986 65.0116 252.264 64.2988L252.331 64.8653Z" fill="black"/>
<path d="M205.74 78.8738C205.245 79.4981 204.761 80.1267 204.282 80.7566C200.998 85.0797 198.107 89.4949 195.708 93.4734C194.83 94.9289 194.017 96.327 193.275 97.639C193.209 97.7554 193.21 97.8996 193.278 98.0151C193.943 99.1552 194.673 100.254 195.459 101.311C199.563 106.829 205.23 111.207 211.65 114.336C219.3 118.064 228.021 120.024 236.469 120.024C237.61 120.024 238.747 119.988 239.875 119.916C239.992 119.909 240.099 119.848 240.164 119.75C240.655 119.021 241.163 118.253 241.681 117.457C244.858 112.577 248.452 106.525 251.403 100.15C252.968 96.7663 254.353 93.2936 255.397 89.8554C255.189 89.6803 254.978 89.5069 254.765 89.3347C253.725 92.8281 252.319 96.3756 250.718 99.8324C247.344 107.121 243.112 114.007 239.643 119.172C238.591 119.235 237.532 119.269 236.469 119.269C228.137 119.27 219.521 117.333 211.981 113.657C204.506 110.014 198.097 104.665 194.042 97.8175C198.11 90.6405 204.265 80.9854 211.701 73.1153C215.451 69.145 219.527 65.6304 223.813 63.1149C227.714 60.8257 231.784 59.3688 235.952 59.1236C235.893 59.0738 235.849 59.0065 235.829 58.926C235.789 58.762 235.864 58.5984 236.001 58.5152L236.008 58.5088L236.046 58.4716C236.07 58.4462 236.103 58.4078 236.146 58.3555C233.673 58.4742 231.242 59.0085 228.868 59.8748C227.019 60.5496 225.204 61.4231 223.431 62.4636C216.876 66.3126 210.876 72.3983 205.74 78.8738Z" fill="black"/>
<path d="M236.594 58.9902C236.552 59.0348 236.515 59.0696 236.48 59.0976C236.604 59.0933 236.729 59.092 236.853 59.09L236.594 58.9902Z" fill="black"/>
<path d="M253.054 66.0234C253.027 66.0856 253.001 66.1487 252.974 66.2111C250.305 72.3928 250.212 79.8703 251.055 86.639C252.365 87.4916 253.6 88.3917 254.765 89.3341C254.977 89.5062 255.188 89.6797 255.396 89.8547C271.666 103.548 273.339 125.957 264.857 147.485L265.61 147.763L266.324 148.027L277.697 152.232L278.406 152.493L279.745 152.989C293.476 118.469 287.556 82.7284 254.184 66.5632C253.809 66.3818 253.436 66.1999 253.054 66.0234Z" fill="black"/>
<path d="M251.557 64.7558L250.251 53.6113C249.168 53.7035 245.877 53.9634 243.167 53.9637C242.549 53.9637 241.96 53.9501 241.433 53.9175C240.905 53.8846 240.438 53.8335 240.054 53.7538C239.942 53.7301 239.84 53.7031 239.741 53.6737C238.882 55.3216 238.241 56.471 237.767 57.2659C237.265 58.1091 236.949 58.5607 236.745 58.8151C236.686 58.8888 236.637 58.9439 236.594 58.99L236.853 59.0897L251.557 64.7558Z" fill="white"/>
<path d="M236.008 58.5093L236.001 58.5157C235.864 58.5989 235.789 58.7625 235.829 58.9265C235.849 59.007 235.893 59.0744 235.952 59.1241C236.041 59.1995 236.163 59.2336 236.285 59.2038C236.354 59.1864 236.399 59.1591 236.445 59.1265C236.457 59.118 236.469 59.1076 236.481 59.0978C236.515 59.0698 236.552 59.035 236.594 58.9905C236.638 58.9445 236.686 58.8894 236.746 58.8156C236.949 58.5612 237.265 58.1096 237.768 57.2665C238.241 56.4714 238.882 55.3222 239.742 53.6743C239.84 53.7036 239.943 53.7306 240.055 53.7543C240.439 53.8341 240.905 53.8851 241.433 53.918C241.961 53.9506 242.549 53.9641 243.167 53.9642C245.877 53.9639 249.168 53.7041 250.252 53.6119L251.557 64.7563L251.58 64.9537C251.605 65.1608 251.792 65.3091 251.999 65.2849C252.047 65.2793 252.092 65.2641 252.132 65.2428C252.265 65.172 252.349 65.0251 252.331 64.8659H252.33L252.264 64.2993L250.959 53.1598C250.935 52.9562 250.754 52.8089 250.549 52.8278C250.549 52.8278 250.486 52.8336 250.367 52.8441C250.319 52.8483 250.261 52.8533 250.195 52.8588C250.005 52.8751 249.744 52.8966 249.428 52.9211C247.974 53.034 245.362 53.2092 243.167 53.209C242.358 53.2091 241.606 53.185 240.998 53.1269C240.694 53.098 240.426 53.0604 240.209 53.015C240.204 53.0141 240.201 53.013 240.196 53.012C239.986 52.968 239.823 52.914 239.734 52.8676C239.642 52.8205 239.539 52.815 239.448 52.8439C239.355 52.8731 239.274 52.9374 239.226 53.0299C237.802 55.777 236.965 57.1765 236.494 57.8754C236.341 58.1041 236.226 58.2565 236.146 58.356C236.103 58.4083 236.07 58.4468 236.046 58.4721L236.008 58.5093Z" fill="black"/>
<path d="M239.708 28.5203C240.427 28.8968 241.234 29.1787 242.116 29.2699C242.296 29.2884 242.437 29.4321 242.454 29.6114C242.589 31.1355 243.401 32.5282 244.219 33.5534C245.034 34.5785 245.844 35.2318 245.927 35.2969L245.934 35.3022C246.053 35.3951 246.106 35.55 246.067 35.6965C246.067 35.6967 246.057 35.7349 246.039 35.8077C246.021 35.8805 245.994 35.9867 245.962 36.119C245.899 36.3838 245.814 36.7532 245.73 37.1695C245.56 38.0001 245.394 39.0268 245.395 39.7462C245.395 39.9112 245.404 40.0591 245.421 40.1798C245.437 40.3004 245.464 40.3934 245.488 40.4451C245.499 40.4706 245.507 40.4825 245.512 40.4889C245.526 40.4923 245.536 40.4937 245.54 40.4937C245.55 40.4919 245.547 40.4978 245.581 40.4724C245.612 40.4473 245.664 40.3852 245.716 40.2934C245.824 40.1096 245.931 39.8219 246.05 39.5372C246.131 39.3465 246.217 39.1554 246.338 38.9809C246.408 38.8815 246.49 38.7857 246.599 38.7054C246.721 38.6135 246.889 38.5473 247.066 38.5487C247.179 38.5487 247.291 38.5734 247.396 38.6156C247.595 38.6922 247.775 38.8387 247.874 39.0266C247.974 39.2137 248 39.411 248.001 39.6071C248 39.8169 247.97 40.0362 247.93 40.2824C247.889 40.5283 247.837 40.8004 247.785 41.1059C247.681 41.7165 247.58 42.4607 247.579 43.3695C247.58 43.7207 247.595 44.0965 247.632 44.4986C247.662 44.8259 247.745 45.0753 247.861 45.2723C247.978 45.469 248.129 45.6177 248.319 45.7374C248.696 45.9768 249.246 46.0848 249.857 46.0834C250.648 46.0841 251.526 45.9097 252.228 45.7211C252.819 45.5629 253.283 45.3974 253.481 45.3232C253.969 44.6145 254.409 43.5184 254.718 42.1909C255.042 40.8089 255.231 39.1797 255.231 37.4719C255.232 35.0147 254.839 32.395 253.913 30.1043C252.987 27.8114 251.536 25.856 249.42 24.6671C247.404 23.5351 245.503 23.1316 243.794 23.1309C241.595 23.1305 239.711 23.8057 238.364 24.4952C237.45 24.9628 236.787 25.4353 236.444 25.7001C236.455 25.7138 236.463 25.7246 236.474 25.7391C236.629 25.9404 236.86 26.2229 237.16 26.5411C237.758 27.178 238.631 27.9562 239.708 28.5203Z" fill="black"/>
<path d="M238.5 28.6716C238.77 28.8536 239.053 29.0302 239.357 29.1899C240.064 29.5602 240.862 29.8519 241.737 29.9824C241.975 31.6573 242.869 33.0911 243.711 34.1289C244.356 34.9206 244.975 35.4824 245.277 35.7401C245.212 36.0051 245.101 36.4712 244.989 37.0202C244.816 37.8766 244.64 38.9228 244.639 39.7472C244.64 40.0581 244.663 40.3381 244.736 40.5881C244.774 40.713 244.825 40.8328 244.908 40.9434C244.989 41.053 245.11 41.1537 245.259 41.2024C245.349 41.2328 245.444 41.2499 245.539 41.2498C245.716 41.2512 245.884 41.1868 246.009 41.0956C246.12 41.0159 246.204 40.9202 246.275 40.8205C246.398 40.6456 246.486 40.4536 246.568 40.2622C246.688 39.9765 246.795 39.6877 246.901 39.5029C246.953 39.4106 247.004 39.3482 247.034 39.3236L247.061 39.3058L247.065 39.3049C247.069 39.305 247.084 39.3055 247.115 39.3178C247.19 39.3509 247.194 39.3636 247.21 39.3879C247.225 39.4132 247.246 39.4814 247.245 39.6082C247.245 39.7412 247.223 39.9294 247.184 40.1602C247.07 40.8563 246.823 41.9245 246.824 43.3706C246.824 43.7439 246.84 44.1428 246.879 44.5679C246.917 44.9878 247.03 45.353 247.21 45.6579C247.481 46.117 247.899 46.4219 248.361 46.5983C248.825 46.7763 249.337 46.8391 249.857 46.8395C250.014 46.8394 250.172 46.8317 250.329 46.8211C250.593 46.8031 250.856 46.7721 251.114 46.7317C251.64 46.6491 252.141 46.5306 252.569 46.4118C253.33 46.1995 253.859 45.9882 253.867 45.9847C253.934 45.9581 253.991 45.9137 254.033 45.8556C254.635 45.0202 255.113 43.8107 255.453 42.3641C255.792 40.9182 255.986 39.2367 255.986 37.4731C255.985 34.9364 255.585 32.2301 254.613 29.8228C253.642 27.4176 252.091 25.3029 249.79 24.01C247.663 22.8145 245.622 22.3763 243.793 22.377C241.401 22.3774 239.377 23.12 237.952 23.859C236.526 24.5986 235.694 25.3368 235.678 25.3515C235.537 25.4764 235.51 25.6849 235.614 25.8418C235.626 25.8593 236.24 26.7888 237.343 27.776C237.511 27.926 237.694 28.0765 237.884 28.226C238.077 28.3778 238.284 28.5264 238.5 28.6716ZM236.473 25.74C236.462 25.7255 236.454 25.7147 236.444 25.701C236.786 25.4362 237.45 24.9637 238.363 24.4961C239.71 23.8066 241.594 23.1314 243.793 23.1318C245.502 23.1325 247.404 23.536 249.42 24.668C251.536 25.8569 252.986 27.8123 253.913 30.1052C254.839 32.3959 255.231 35.0156 255.231 37.4728C255.231 39.1805 255.042 40.8098 254.718 42.1918C254.409 43.5193 253.969 44.6154 253.481 45.3241C253.282 45.3983 252.818 45.5638 252.228 45.722C251.526 45.9106 250.647 46.0851 249.857 46.0843C249.245 46.0857 248.696 45.9777 248.318 45.7383C248.128 45.6185 247.977 45.4699 247.86 45.2732C247.744 45.0763 247.661 44.8268 247.631 44.4995C247.594 44.0974 247.579 43.7216 247.579 43.3704C247.579 42.4616 247.681 41.7174 247.784 41.1068C247.836 40.8013 247.888 40.5292 247.929 40.2833C247.97 40.0371 248 39.8178 248 39.608C248 39.4119 247.974 39.2146 247.873 39.0275C247.774 38.8396 247.594 38.6932 247.395 38.6165C247.29 38.5743 247.178 38.5496 247.065 38.5496C246.889 38.5481 246.721 38.6144 246.598 38.7063C246.489 38.7866 246.407 38.8824 246.337 38.9818C246.217 39.1562 246.13 39.3474 246.049 39.5381C245.93 39.8228 245.823 40.1105 245.716 40.2943C245.663 40.3861 245.611 40.4482 245.58 40.4733C245.546 40.4988 245.549 40.4928 245.539 40.4946C245.535 40.4946 245.525 40.4932 245.512 40.4898C245.507 40.4834 245.498 40.4715 245.487 40.446C245.463 40.3943 245.437 40.3012 245.42 40.1807C245.403 40.06 245.394 39.9122 245.394 39.7471C245.393 39.0277 245.56 38.001 245.729 37.1704C245.814 36.7541 245.898 36.3847 245.962 36.1199C245.994 35.9876 246.02 35.8813 246.038 35.8086C246.057 35.7357 246.067 35.6974 246.067 35.6974C246.105 35.5509 246.053 35.396 245.933 35.3031L245.927 35.2978C245.844 35.2327 245.033 34.5794 244.218 33.5543C243.4 32.5291 242.589 31.1365 242.453 29.6123C242.437 29.433 242.295 29.2893 242.116 29.2708C241.234 29.1796 240.426 28.8977 239.708 28.5212C238.631 27.9571 237.758 27.1789 237.159 26.542C236.86 26.2238 236.628 25.9413 236.473 25.74Z" fill="black"/>
<path d="M122.797 18.3247C119.536 16.9184 115.621 16.1018 111.409 16.1016C105.794 16.1025 100.705 17.5521 96.9934 19.9206C95.1383 21.1055 93.6266 22.5218 92.5741 24.1102C91.5218 25.6977 90.9311 27.4617 90.9316 29.3145C90.9312 31.1673 91.5218 32.9312 92.5741 34.5185C92.8012 34.861 93.0521 35.1946 93.3206 35.5205C94.9199 37.4614 97.2312 39.0985 100.022 40.303C103.282 41.709 107.198 42.5254 111.409 42.5256C117.025 42.5247 122.114 41.0755 125.825 38.7074C127.68 37.5228 129.191 36.1067 130.244 34.5185C131.296 32.9312 131.886 31.1673 131.886 29.3145C131.886 27.6081 131.38 25.9789 130.479 24.4918C130.402 24.3642 130.327 24.2357 130.244 24.1102C128.664 21.7278 126.056 19.7318 122.797 18.3247ZM129.614 24.5273C130.596 26.011 131.13 27.6234 131.131 29.3146C131.13 31.0057 130.596 32.618 129.614 34.1015C128.142 36.3254 125.654 38.2488 122.497 39.6097C119.342 40.9712 115.523 41.7708 111.409 41.7706C105.924 41.7715 100.964 40.3479 97.3999 38.071C95.9945 37.174 94.8113 36.1439 93.8905 35.0221C93.6435 34.7212 93.4113 34.415 93.2036 34.1015C92.2215 32.6179 91.6872 31.0057 91.6866 29.3146C91.6871 27.6234 92.2215 26.011 93.2036 24.5273C94.6755 22.303 97.1643 20.3792 100.321 19.0181C103.477 17.6562 107.296 16.8564 111.409 16.8567C116.894 16.8557 121.855 18.2798 125.418 20.5571C127.131 21.6505 128.515 22.9405 129.492 24.3551C129.532 24.4127 129.576 24.4692 129.614 24.5273Z" fill="black"/>
<path d="M111.409 47.2527C119.069 47.2518 126.009 45.2733 131.059 42.0495C133.584 40.437 135.638 38.5116 137.065 36.3577C138.491 34.2049 139.289 31.8192 139.288 29.3139C139.289 28.391 139.18 27.4846 138.972 26.5999C138.615 25.0825 137.966 23.6293 137.065 22.2693C134.923 19.0386 131.376 16.3211 126.935 14.4048C122.494 12.4891 117.154 11.3752 111.409 11.375C103.749 11.3759 96.8089 13.354 91.7583 16.5775C89.2334 18.1899 87.1798 20.1153 85.7528 22.2693C84.326 24.4222 83.5282 26.8081 83.5289 29.3139C83.5282 31.8876 84.37 34.3345 85.8703 36.5328C86.7035 37.7542 87.74 38.9003 88.9492 39.9559C89.8018 40.7002 90.7408 41.3991 91.7558 42.0478L81.6821 51.5275L59.954 71.9741C59.9213 72.0049 59.8951 72.0401 59.8751 72.0803C59.6987 72.4321 59.6148 72.7987 59.6152 73.1579C59.6154 73.7108 59.8087 74.2361 60.1147 74.7033C60.5757 75.4049 61.29 75.9929 62.0938 76.4171C62.8986 76.8395 63.795 77.0985 64.6435 77.0997C65.152 77.0996 65.6464 77.005 66.0835 76.7803C66.4982 76.5682 66.8521 76.2291 67.0948 75.7783L78.1571 64.8023L98.0497 45.0646C102.019 46.4599 106.57 47.2527 111.409 47.2527ZM78.3054 63.5914L66.5327 75.2723C66.5029 75.3018 66.4796 75.3339 66.461 75.3713C66.2856 75.7192 66.0432 75.9502 65.7379 76.1088C65.4329 76.2662 65.0586 76.3447 64.6435 76.3446C63.7208 76.3477 62.6139 75.9468 61.7703 75.3295C61.3478 75.0224 60.991 74.6635 60.7466 74.2896C60.5015 73.9149 60.3702 73.5313 60.3703 73.1578C60.3707 72.9314 60.42 72.7049 60.5272 72.4716L80.9821 53.2232L92.6291 42.263C92.7145 42.1827 92.7579 42.066 92.7459 41.9494C92.734 41.8327 92.6676 41.7274 92.5677 41.6661C91.4249 40.9659 90.3808 40.2033 89.4474 39.3885C88.2806 38.37 87.2871 37.2701 86.494 36.1073C85.0664 34.0132 84.2844 31.7215 84.2837 29.3139C84.2842 26.9697 85.0257 24.7355 86.3822 22.6862C88.4159 19.6137 91.843 16.9686 96.1812 15.0982C100.518 13.227 105.762 12.1299 111.409 12.1301C118.938 12.1292 125.749 14.0818 130.653 17.2139C133.105 18.7794 135.079 20.638 136.435 22.6862C137.198 23.8391 137.767 25.0504 138.118 26.307C138.391 27.2841 138.533 28.2884 138.534 29.3139C138.533 31.6576 137.792 33.8916 136.435 35.9407C134.401 39.0131 130.974 41.6584 126.636 43.5291C122.299 45.4005 117.056 46.4979 111.409 46.4976C106.562 46.4978 102.012 45.6891 98.0786 44.2756C97.9414 44.2263 97.7884 44.2603 97.6851 44.3628L78.3054 63.5914Z" fill="black"/>
<path d="M36.4783 200.949C34.2572 199.787 32.4315 198.089 30.9234 195.967C29.1546 193.481 27.2616 192.095 25.8002 191.323C24.8879 190.842 24.1435 190.602 23.7052 190.488L23.7051 219.654H60.5536V211.385L60.5527 211.383C60.5403 211.345 60.5214 211.288 60.4958 211.215C60.4444 211.067 60.3662 210.853 60.2601 210.586C60.0477 210.052 59.7231 209.311 59.2778 208.49C58.3879 206.845 57.0111 204.882 55.1087 203.596C53.8393 202.737 52.3443 202.172 50.5715 202.171C50.0856 202.171 49.5788 202.214 49.0495 202.306C47.381 202.595 45.8236 202.735 44.3689 202.735C41.3088 202.736 38.6989 202.112 36.4783 200.949Z" fill="white"/>
<path d="M17.0889 227.197H67.1699V159.789H17.0889V227.197ZM59.4607 167.773C61.2645 167.773 62.726 169.235 62.7261 171.039C62.726 172.842 61.2643 174.304 59.4607 174.304C57.657 174.304 56.1953 172.842 56.1952 171.039C56.1953 169.235 57.6569 167.773 59.4607 167.773ZM55.5321 202.97C56.9023 203.899 57.9932 205.125 58.8434 206.343C60.542 208.78 61.2842 211.193 61.2919 211.214C61.3032 211.251 61.3086 211.287 61.3086 211.325V220.031C61.3086 220.131 61.2693 220.226 61.198 220.298C61.1267 220.369 61.0319 220.408 60.9311 220.408H23.3278C23.2283 220.408 23.131 220.368 23.0607 220.298C22.9904 220.227 22.9502 220.13 22.9502 220.031V190.021C22.9502 189.912 22.9969 189.809 23.0792 189.737C23.1614 189.665 23.2698 189.632 23.3782 189.647C23.4117 189.651 24.5136 189.804 26.0787 190.616C27.6435 191.428 29.6701 192.901 31.5388 195.529C32.9918 197.572 34.7255 199.179 36.8284 200.28C38.9317 201.38 41.41 201.979 44.3689 201.98C45.775 201.98 47.2893 201.844 48.9204 201.561C49.4908 201.462 50.0414 201.416 50.5715 201.416C52.5084 201.415 54.1635 202.042 55.5321 202.97ZM22.8 168.698C22.8 168.599 22.8402 168.501 22.9106 168.431C22.9808 168.361 23.0782 168.32 23.1776 168.32H50.0307C50.1315 168.32 50.2263 168.36 50.2976 168.431C50.3689 168.502 50.4081 168.597 50.4081 168.698V173.872C50.4081 173.972 50.3689 174.067 50.2976 174.139C50.2263 174.21 50.1315 174.249 50.0307 174.249H23.1776C23.0782 174.249 22.9808 174.209 22.9106 174.139C22.8403 174.068 22.8 173.971 22.8 173.872V168.698Z" fill="white"/>
<path d="M16.4445 227.841C16.5148 227.911 16.6121 227.951 16.7116 227.951H59.3281H67.5477C67.6485 227.951 67.7433 227.912 67.8146 227.841C67.8859 227.77 67.9251 227.675 67.9251 227.574V159.411C67.9251 159.31 67.8859 159.215 67.8146 159.144C67.7433 159.073 67.6485 159.033 67.5477 159.033H16.7116C16.6121 159.033 16.5148 159.073 16.4445 159.144C16.3742 159.214 16.334 159.311 16.334 159.411V214.4V227.574C16.334 227.673 16.3742 227.771 16.4445 227.841ZM67.1699 159.788V227.196H17.089V159.788H67.1699Z" fill="black"/>
<path d="M49.6536 169.076H23.5557V173.495H49.6536V169.076Z" fill="white"/>
<path d="M23.1784 174.249H50.0314C50.1322 174.249 50.2271 174.21 50.2984 174.138C50.3696 174.067 50.4089 173.972 50.4089 173.872V168.698C50.4089 168.597 50.3696 168.502 50.2984 168.431C50.2271 168.36 50.1322 168.32 50.0314 168.32H23.1784C23.0789 168.32 22.9816 168.361 22.9113 168.431C22.841 168.501 22.8008 168.598 22.8008 168.698V173.872C22.8008 173.971 22.841 174.068 22.9113 174.139C22.9817 174.209 23.079 174.249 23.1784 174.249ZM49.6538 169.075V173.494H23.5558V169.075H49.6538Z" fill="black"/>
<path d="M57.6855 172.813C58.1409 173.268 58.7662 173.548 59.4607 173.548C60.1551 173.548 60.7803 173.268 61.2358 172.813C61.6907 172.358 61.9709 171.732 61.9711 171.038C61.9709 170.343 61.6906 169.718 61.2358 169.263C60.7804 168.808 60.1551 168.527 59.4607 168.527C58.7662 168.527 58.1409 168.808 57.6855 169.263C57.2306 169.718 56.9504 170.344 56.9502 171.038C56.9504 171.732 57.2306 172.358 57.6855 172.813Z" fill="white"/>
<path d="M59.4609 174.305C61.2645 174.304 62.7262 172.843 62.7263 171.039C62.7261 169.236 61.2645 167.774 59.4609 167.773C57.657 167.774 56.1955 169.236 56.1953 171.039C56.1955 172.843 57.6571 174.304 59.4609 174.305ZM59.4609 168.528C60.1553 168.529 60.7805 168.809 61.236 169.264C61.6909 169.719 61.9711 170.345 61.9713 171.039C61.9711 171.734 61.6908 172.359 61.236 172.814C60.7805 173.269 60.1553 173.549 59.4609 173.55C58.7664 173.549 58.1411 173.269 57.6857 172.814C57.2308 172.359 56.9506 171.734 56.9504 171.039C56.9506 170.345 57.2308 169.719 57.6857 169.264C58.1411 168.809 58.7664 168.529 59.4609 168.528Z" fill="black"/>
<path d="M288.956 218.893C288.992 219.098 289.188 219.235 289.394 219.199C289.599 219.162 289.736 218.966 289.699 218.761L287.965 208.968C287.929 208.763 287.733 208.626 287.528 208.662C287.322 208.698 287.185 208.894 287.222 209.1L288.956 218.893Z" fill="black"/>
<path d="M298.017 193.914L291.717 198.61L299.047 204.566L304.316 199.985L298.017 193.914Z" fill="url(#paint11_linear_754_2051)"/>
<path d="M87.5624 129.967C87.4799 127.778 86.5621 125.806 85.1145 124.358C83.5959 122.84 81.5022 121.902 79.1856 121.902C76.8688 121.903 74.775 122.84 73.2565 124.358C71.8089 125.806 70.891 127.778 70.8086 129.967H87.5624Z" fill="white"/>
<path d="M70.0459 130.286L70.0461 130.296L70.0475 130.353C70.0527 130.558 70.2198 130.721 70.425 130.721H87.947C88.152 130.721 88.319 130.558 88.3243 130.353L88.3257 130.296L88.3259 130.286C88.3257 125.238 84.2339 121.147 79.1859 121.146C74.1379 121.147 70.0461 125.238 70.0459 130.286ZM79.1859 121.902C81.5025 121.902 83.5963 122.839 85.1149 124.357C86.5624 125.806 87.4803 127.777 87.5628 129.966H70.8091C70.8915 127.777 71.8093 125.806 73.2569 124.357C74.7755 122.839 76.8693 121.902 79.1859 121.902Z" fill="black"/>
<path d="M77.6996 100.317C77.8639 100.188 77.8932 99.9509 77.7649 99.7866L75.016 96.2644C74.8877 96.1001 74.6505 96.0708 74.4861 96.1991C74.3217 96.3274 74.2925 96.5647 74.4208 96.729L77.1697 100.251C77.2979 100.416 77.5351 100.445 77.6996 100.317Z" fill="black"/>
<path d="M149.142 230.475C149.343 230.53 149.551 230.412 149.606 230.211L151.08 224.827C151.136 224.626 151.017 224.418 150.816 224.363C150.615 224.308 150.407 224.426 150.352 224.628L148.878 230.011C148.823 230.212 148.941 230.42 149.142 230.475Z" fill="black"/>
<path d="M44.3689 201.979C41.4101 201.978 38.9317 201.38 36.8284 200.279C34.7255 199.178 32.9919 197.571 31.5388 195.528C29.6701 192.9 27.6435 191.427 26.0787 190.616C24.5136 189.804 23.4117 189.651 23.3783 189.646C23.2698 189.631 23.1615 189.664 23.0792 189.736C22.9968 189.808 22.9502 189.911 22.9502 190.02V220.03C22.9502 220.129 22.9904 220.227 23.0607 220.297C23.131 220.367 23.2283 220.407 23.3278 220.407H60.9311C61.0319 220.407 61.1268 220.368 61.198 220.297C61.2693 220.226 61.3086 220.131 61.3086 220.03V211.325C61.3086 211.286 61.3032 211.25 61.2919 211.213C61.2842 211.192 60.5421 208.78 58.8434 206.343C57.9933 205.124 56.9023 203.898 55.5321 202.969C54.1635 202.041 52.5084 201.414 50.5714 201.415C50.0415 201.415 49.4909 201.461 48.9203 201.56C47.2894 201.843 45.7751 201.979 44.3689 201.979ZM50.5715 202.17C52.3443 202.171 53.8394 202.736 55.1087 203.594C57.0111 204.881 58.3879 206.844 59.2778 208.489C59.7231 209.31 60.0478 210.051 60.2601 210.585C60.3662 210.851 60.4445 211.066 60.4958 211.213C60.5214 211.287 60.5403 211.344 60.5527 211.381L60.5536 211.384V219.652H23.7052L23.7053 190.487C24.1436 190.601 24.888 190.841 25.8003 191.322C27.2617 192.093 29.1547 193.48 30.9235 195.966C32.4316 198.088 34.2572 199.786 36.4784 200.948C38.6989 202.111 41.3089 202.735 44.369 202.734C45.8237 202.734 47.381 202.594 49.0495 202.304C49.5788 202.213 50.0857 202.17 50.5715 202.17Z" fill="black"/>
<path d="M238.269 220.429L238.64 220.33C238.174 218.47 237.922 216.525 237.922 214.52C237.922 213.941 237.948 213.367 237.99 212.797L237.605 212.763C237.398 212.745 237.245 212.563 237.262 212.355C237.199 213.07 237.167 213.791 237.167 214.52C237.167 216.723 237.458 218.859 238.002 220.891C237.948 220.69 238.067 220.483 238.269 220.429Z" fill="black"/>
<path d="M242.291 228.268C241.19 226.715 240.273 225.024 239.566 223.227C240.273 225.024 241.19 226.715 242.291 228.268Z" fill="black"/>
<path d="M248.594 193.761C248.679 193.707 248.781 193.689 248.879 193.712C248.978 193.734 249.062 193.794 249.116 193.88C249.182 193.987 249.25 194.095 249.317 194.203C252.935 191.983 257.187 190.702 261.743 190.702C263.643 190.702 265.492 190.926 267.263 191.347C271.624 192.381 275.519 194.613 278.585 197.679C282.896 201.99 285.56 207.942 285.561 214.52C285.56 219.945 283.747 224.943 280.695 228.947C280.045 229.799 279.341 230.607 278.585 231.364C274.274 235.675 268.322 238.34 261.743 238.34C254.269 238.34 247.605 234.9 243.239 229.514L242.938 229.75C242.774 229.879 242.537 229.851 242.408 229.687C246.903 235.416 253.894 239.096 261.743 239.096C269.371 239.095 276.186 235.62 280.693 230.166C284.205 225.916 286.315 220.465 286.316 214.52C286.315 202.575 277.792 192.621 266.494 190.408C264.957 190.107 263.368 189.947 261.743 189.947C256.907 189.947 252.395 191.345 248.594 193.761Z" fill="black"/>
<path d="M262.054 214.73C262.035 214.76 262.011 214.786 261.983 214.809C262.01 214.787 262.034 214.761 262.054 214.73Z" fill="black"/>
<path d="M262.111 214.454C262.107 214.427 262.099 214.401 262.088 214.375C262.099 214.401 262.107 214.427 262.111 214.454Z" fill="black"/>
<path d="M262.109 214.607C262.1 214.646 262.085 214.684 262.063 214.718C262.064 214.717 262.065 214.716 262.066 214.715C262.086 214.681 262.1 214.645 262.109 214.607Z" fill="black"/>
<path d="M262.117 214.492C262.119 214.523 262.117 214.553 262.112 214.583C262.117 214.553 262.12 214.523 262.117 214.492Z" fill="black"/>
<path d="M237.606 212.764L237.99 212.798L259.585 214.709L261.645 214.156C261.812 214.112 261.987 214.189 262.07 214.339C262.067 214.332 262.065 214.324 262.061 214.317C262.06 214.317 261.945 214.138 261.733 213.806C260.265 211.514 254.159 201.965 249.318 194.204C249.25 194.096 249.183 193.988 249.116 193.881C249.063 193.795 248.978 193.735 248.879 193.713C248.781 193.69 248.679 193.708 248.594 193.762C248.594 193.762 248.593 193.762 248.593 193.762C248.003 194.136 247.43 194.535 246.876 194.957C243.632 197.423 241.023 200.68 239.329 204.437C239.257 204.597 239.186 204.758 239.118 204.92C238.986 205.229 238.861 205.541 238.742 205.857C238.636 206.139 238.533 206.423 238.436 206.71C237.834 208.508 237.434 210.399 237.263 212.356C237.263 212.356 237.263 212.356 237.263 212.357C237.245 212.564 237.399 212.746 237.606 212.764ZM248.679 194.608C253.434 202.229 259.402 211.566 261.01 214.077L238.054 212.046C238.806 204.753 242.849 198.437 248.679 194.608Z" fill="black"/>
<path d="M242.938 229.75L243.239 229.514L261.976 214.817C261.979 214.814 261.981 214.811 261.984 214.808C262.012 214.785 262.035 214.758 262.055 214.729C262.057 214.725 262.061 214.722 262.064 214.718C262.085 214.684 262.1 214.647 262.109 214.608C262.111 214.599 262.111 214.591 262.112 214.583C262.117 214.552 262.119 214.522 262.117 214.491C262.116 214.479 262.113 214.467 262.111 214.454C262.106 214.427 262.098 214.401 262.088 214.375C262.084 214.367 262.084 214.359 262.08 214.351C262.078 214.346 262.073 214.342 262.07 214.337C261.987 214.188 261.812 214.11 261.645 214.155L259.585 214.708L238.64 220.329L238.269 220.429C238.068 220.483 237.948 220.69 238.002 220.891V220.891C238.491 222.717 239.185 224.459 240.058 226.091C240.737 227.361 241.525 228.563 242.408 229.686C242.537 229.85 242.774 229.879 242.938 229.75ZM242.291 228.268C241.191 226.715 240.273 225.024 239.567 223.227C239.464 222.966 239.364 222.703 239.271 222.437C239.111 221.984 238.966 221.524 238.834 221.059L260.055 215.364L242.773 228.92C242.752 228.893 242.73 228.866 242.709 228.838C242.588 228.677 242.469 228.515 242.351 228.351C242.331 228.323 242.311 228.296 242.291 228.268Z" fill="black"/>
<path d="M179.409 281.456C179.503 281.525 179.599 281.594 179.697 281.662C179.903 281.804 180.118 281.941 180.337 282.075C180.325 282.802 180.293 283.483 180.26 284.014C180.24 284.348 180.219 284.623 180.204 284.814C180.196 284.91 180.19 284.984 180.185 285.035C180.181 285.085 180.179 285.111 180.179 285.111C180.159 285.319 180.311 285.503 180.519 285.523C180.727 285.542 180.911 285.39 180.931 285.182C180.931 285.176 181.043 283.991 181.083 282.508C181.837 282.921 182.603 283.277 183.266 283.562C184.348 284.027 185.151 284.299 185.158 284.302C185.355 284.369 185.57 284.263 185.637 284.065C185.704 283.868 185.598 283.653 185.401 283.587H185.4L185.381 283.58C185.175 283.509 183.347 282.867 181.591 281.926C181.425 281.836 181.26 281.744 181.096 281.649C181.096 281.603 181.097 281.556 181.097 281.51C181.096 281.115 181.089 280.714 181.072 280.32C181.059 280.033 181.042 279.75 181.017 279.475C180.979 279.043 180.925 278.63 180.848 278.257C180.75 277.788 180.622 277.38 180.422 277.052C180.32 276.889 180.198 276.743 180.04 276.633C179.883 276.523 179.686 276.456 179.483 276.457C179.264 276.457 179.051 276.528 178.846 276.646C178.64 276.765 178.436 276.932 178.222 277.152C177.988 277.393 177.81 277.644 177.692 277.906C177.573 278.168 177.515 278.439 177.516 278.707C177.516 279.135 177.661 279.541 177.889 279.913C178.12 280.29 178.438 280.639 178.808 280.969C178.996 281.136 179.197 281.299 179.409 281.456ZM179.238 280.341C178.929 280.058 178.681 279.769 178.516 279.492C178.351 279.214 178.271 278.954 178.271 278.707C178.271 278.546 178.303 278.387 178.38 278.217C178.456 278.048 178.579 277.868 178.763 277.679C178.943 277.494 179.099 277.371 179.222 277.301C179.346 277.229 179.431 277.212 179.483 277.212C179.532 277.213 179.561 277.222 179.61 277.254C179.693 277.307 179.815 277.468 179.916 277.73C180.071 278.121 180.184 278.71 180.25 279.374C180.268 279.547 180.282 279.726 180.294 279.908C180.313 280.194 180.324 280.49 180.332 280.787C180.335 280.92 180.338 281.051 180.339 281.184C180.239 281.118 180.141 281.051 180.045 280.983C179.822 280.826 179.613 280.665 179.422 280.502C179.359 280.448 179.297 280.395 179.238 280.341Z" fill="black"/>
<path d="M86.3319 266.45C86.4267 266.483 86.5243 266.513 86.6204 266.545C86.8336 266.616 87.0489 266.685 87.2671 266.752C87.2722 266.971 87.2753 267.196 87.2753 267.43C87.2753 267.999 87.26 268.61 87.2274 269.265C87.2169 269.473 87.3774 269.65 87.5858 269.661C87.7941 269.671 87.9713 269.51 87.9818 269.302C88.0147 268.636 88.0303 268.012 88.0303 267.43C88.0301 267.275 88.0288 267.122 88.0266 266.973C89.1804 267.293 90.3413 267.553 91.3209 267.748C92.7878 268.041 93.8461 268.191 93.851 268.192C94.0574 268.221 94.2486 268.078 94.278 267.871C94.3074 267.665 94.1638 267.474 93.9575 267.444H93.9574C93.9572 267.444 93.9159 267.438 93.8357 267.426C93.2397 267.337 90.5481 266.909 88.0035 266.183C87.9904 265.891 87.9725 265.612 87.9503 265.345C87.9244 265.032 87.8923 264.735 87.8545 264.455C87.7339 263.563 87.5549 262.833 87.3253 262.249C87.1009 261.682 86.8278 261.247 86.4935 260.941C86.1617 260.635 85.7552 260.468 85.3409 260.471C84.8549 260.472 84.3871 260.681 83.9518 261.02C83.5152 261.361 83.1008 261.839 82.7117 262.433C82.5126 262.736 82.4056 263.059 82.4063 263.379C82.4059 263.62 82.4658 263.852 82.5687 264.064C82.7633 264.463 83.0956 264.796 83.5096 265.099C84.1238 265.545 84.9333 265.929 85.8332 266.268C85.9971 266.33 86.1627 266.391 86.3319 266.45ZM83.4867 264.078C83.3724 263.951 83.2901 263.828 83.2378 263.712C83.1855 263.596 83.1616 263.489 83.1614 263.379C83.1622 263.224 83.2087 263.054 83.3437 262.847C83.6985 262.303 84.0682 261.886 84.4161 261.615C84.7651 261.343 85.0821 261.225 85.3409 261.226C85.563 261.228 85.7636 261.3 85.9847 261.499C86.3137 261.794 86.6525 262.405 86.8902 263.384C87.0038 263.848 87.0954 264.395 87.1612 265.023C87.1917 265.314 87.2158 265.624 87.2344 265.952C86.9599 265.865 86.6903 265.776 86.4284 265.682C85.7096 265.426 85.0488 265.145 84.5151 264.845C84.0701 264.595 83.7146 264.332 83.4867 264.078Z" fill="black"/>
<path d="M41.7643 112.283C41.7041 112.038 41.666 111.786 41.6512 111.526L31.568 111.328C31.5656 111.586 31.5395 111.838 31.4922 112.082L41.7643 112.283Z" fill="black"/>
<path d="M38.3076 119.558C38.538 119.671 38.7557 119.805 38.9596 119.957L43.4406 114.71C43.2327 114.567 43.0374 114.406 42.8593 114.229L38.3076 119.558Z" fill="black"/>
<path d="M30.3609 114.217C30.1834 114.395 29.9887 114.557 29.7812 114.701L34.0503 119.915C34.2565 119.767 34.4768 119.637 34.7089 119.528L30.3609 114.217Z" fill="black"/>
<path d="M43.3902 113.693C44.007 114.309 44.8553 114.689 45.7961 114.689C46.7367 114.689 47.5848 114.309 48.2017 113.693C48.818 113.076 49.198 112.228 49.1983 111.287C49.198 110.346 48.818 109.498 48.2017 108.881C47.5848 108.265 46.7367 107.885 45.7961 107.885C44.8552 107.885 44.007 108.265 43.3902 108.881C42.7738 109.498 42.3938 110.346 42.3936 111.287C42.3938 112.228 42.7738 113.076 43.3902 113.693Z" fill="white"/>
<path d="M42.8587 114.228C43.0368 114.406 43.2321 114.567 43.4401 114.71C44.1099 115.172 44.9209 115.444 45.7962 115.444C48.0922 115.443 49.9532 113.582 49.9534 111.286C49.9532 108.99 48.0922 107.129 45.7962 107.129C43.4999 107.129 41.6388 108.99 41.6387 111.286C41.6387 111.367 41.6462 111.445 41.6507 111.525C41.6654 111.784 41.7035 112.037 41.7638 112.282C41.9481 113.031 42.3306 113.701 42.8587 114.228ZM42.3936 111.286C42.3939 110.346 42.7739 109.497 43.3902 108.881C44.0071 108.264 44.8554 107.884 45.7961 107.884C46.7367 107.884 47.5848 108.264 48.2017 108.881C48.8181 109.497 49.1981 110.346 49.1984 111.286C49.1981 112.227 48.8181 113.075 48.2017 113.692C47.5849 114.308 46.7367 114.689 45.7961 114.689C44.8553 114.688 44.0071 114.308 43.3902 113.692C42.7739 113.075 42.3939 112.227 42.3936 111.286Z" fill="black"/>
<path d="M25.0064 113.693C25.6232 114.309 26.4714 114.689 27.412 114.689C28.3527 114.689 29.2009 114.309 29.8179 113.693C30.4342 113.076 30.8143 112.228 30.8145 111.287C30.8143 110.346 30.4342 109.498 29.8179 108.881C29.2011 108.265 28.3527 107.885 27.412 107.885C26.4714 107.885 25.6232 108.265 25.0064 108.881C24.39 109.498 24.01 110.346 24.0098 111.287C24.01 112.228 24.39 113.076 25.0064 113.693Z" fill="white"/>
<path d="M27.4121 115.444C28.2932 115.444 29.1088 115.168 29.7812 114.7C29.9887 114.556 30.1834 114.395 30.3608 114.216C30.93 113.643 31.3319 112.905 31.4917 112.081C31.539 111.836 31.5651 111.585 31.5675 111.327C31.5677 111.313 31.5696 111.3 31.5696 111.286C31.5694 108.99 29.7084 107.129 27.4122 107.129C25.1161 107.129 23.2551 108.99 23.2549 111.286C23.255 113.582 25.1159 115.443 27.4121 115.444ZM27.4121 107.884C28.3528 107.884 29.2011 108.264 29.818 108.88C30.4343 109.497 30.8143 110.346 30.8146 111.286C30.8143 112.227 30.4343 113.075 29.818 113.692C29.201 114.308 28.3528 114.688 27.4121 114.689C26.4714 114.688 25.6233 114.308 25.0065 113.692C24.3901 113.075 24.0101 112.227 24.0098 111.286C24.0101 110.346 24.3901 109.497 25.0065 108.88C25.6233 108.264 26.4714 107.884 27.4121 107.884Z" fill="black"/>
<path d="M38.8823 120.881C38.2654 120.265 37.4172 119.885 36.4765 119.885C35.5358 119.885 34.6876 120.265 34.0708 120.881C33.4545 121.498 33.0745 122.346 33.0742 123.287C33.0745 124.228 33.4545 125.076 34.0708 125.693C34.6876 126.309 35.5358 126.689 36.4765 126.689C37.4172 126.689 38.2655 126.309 38.8823 125.693C39.4987 125.076 39.8787 124.228 39.8789 123.287C39.8787 122.346 39.4987 121.498 38.8823 120.881Z" fill="white"/>
<path d="M36.4766 119.129C35.8436 119.129 35.246 119.275 34.709 119.528C34.4769 119.637 34.2566 119.767 34.0504 119.915C33.0035 120.67 32.3194 121.897 32.3193 123.286C32.3196 125.583 34.1806 127.444 36.4767 127.444C38.7728 127.444 40.6338 125.583 40.6341 123.286C40.6339 121.922 39.9739 120.715 38.9592 119.957C38.7553 119.805 38.5375 119.671 38.3072 119.558C37.7541 119.286 37.1345 119.129 36.4766 119.129ZM36.4766 126.689C35.5359 126.688 34.6877 126.308 34.0709 125.692C33.4545 125.075 33.0745 124.227 33.0743 123.286C33.0745 122.346 33.4545 121.497 34.0709 120.88C34.6877 120.264 35.5359 119.884 36.4766 119.884C37.4173 119.884 38.2654 120.264 38.8824 120.88C39.4988 121.497 39.8788 122.346 39.879 123.286C39.8788 124.227 39.4988 125.075 38.8824 125.692C38.2656 126.308 37.4173 126.689 36.4766 126.689Z" fill="black"/>
<path d="M232.998 160.706C232.813 160.611 232.585 160.684 232.49 160.869C232.395 161.055 232.468 161.282 232.653 161.378L245.138 167.792C245.324 167.887 245.551 167.814 245.647 167.629C245.742 167.443 245.669 167.215 245.483 167.12L232.998 160.706Z" fill="black"/>
<path d="M117.048 55.5923C117.254 55.6291 117.45 55.4925 117.486 55.2872C117.523 55.082 117.387 54.8857 117.181 54.849L108.44 53.2826L108.433 53.2814C108.228 53.2446 108.032 53.3811 107.995 53.5864C107.959 53.7908 108.094 53.986 108.298 54.0239C108.299 54.0241 108.299 54.0245 108.3 54.0246L117.048 55.5923Z" fill="black"/>
<path d="M115.965 57.9503C115.986 57.7429 115.834 57.5578 115.627 57.5369L107.554 56.7269L107.53 56.7246C107.323 56.7037 107.138 56.8551 107.117 57.0625C107.096 57.27 107.248 57.4551 107.455 57.476L107.463 57.4767L115.551 58.2884C115.759 58.3091 115.944 58.1578 115.965 57.9503Z" fill="black"/>
<path d="M115.473 60.3058C115.483 60.0974 115.321 59.9211 115.113 59.9117L106.733 59.5375C106.733 59.5375 106.733 59.5375 106.733 59.5375C106.525 59.5283 106.348 59.6896 106.339 59.8978C106.33 60.1062 106.491 60.2825 106.699 60.2919L106.708 60.2923L115.079 60.6661C115.288 60.6754 115.464 60.5141 115.473 60.3058Z" fill="black"/>
<path d="M275.278 166.486C275.007 165.919 274.746 165.343 274.546 164.842C274.446 164.592 274.361 164.361 274.298 164.162C274.235 163.963 274.194 163.795 274.18 163.683C274.152 163.476 273.962 163.331 273.755 163.359C273.549 163.386 273.403 163.576 273.431 163.783C273.459 163.992 273.523 164.224 273.61 164.488C273.916 165.404 274.528 166.696 275.067 167.775C275.607 168.851 276.071 169.706 276.073 169.708C276.078 169.718 276.085 169.727 276.091 169.736C276.198 169.897 276.411 169.954 276.585 169.86C276.768 169.76 276.836 169.531 276.736 169.348H276.736C276.736 169.348 276.727 169.331 276.712 169.303C276.694 169.271 276.668 169.222 276.633 169.156C276.402 168.724 275.819 167.622 275.278 166.486Z" fill="black"/>
<path d="M271.888 168.944C271.668 168.247 271.454 167.508 271.297 166.83C271.14 166.154 271.041 165.534 271.042 165.104L271.043 165.046C271.049 164.837 270.886 164.663 270.678 164.656C270.469 164.65 270.295 164.813 270.288 165.022C270.287 165.052 270.287 165.079 270.287 165.104C270.288 165.675 270.414 166.382 270.595 167.143C271.141 169.417 272.216 172.152 272.219 172.16C272.221 172.165 272.223 172.168 272.225 172.173C272.306 172.358 272.519 172.449 272.708 172.374C272.903 172.298 272.998 172.079 272.922 171.885C272.922 171.885 272.918 171.875 272.913 171.861C272.91 171.853 272.906 171.845 272.901 171.831C272.798 171.565 272.329 170.338 271.888 168.944Z" fill="black"/>
<path d="M269.743 174.304C269.743 174.304 269.713 174.216 269.661 174.057C269.479 173.498 269.021 172.064 268.61 170.529C268.404 169.762 268.211 168.969 268.07 168.251C267.928 167.535 267.84 166.888 267.841 166.438C267.841 166.33 267.846 166.234 267.855 166.154C267.879 165.947 267.731 165.759 267.524 165.735C267.317 165.711 267.129 165.859 267.105 166.066C267.091 166.184 267.086 166.308 267.086 166.438C267.087 167.055 267.212 167.85 267.394 168.719C267.931 171.262 268.978 174.398 269.025 174.537C269.026 174.541 269.027 174.544 269.027 174.544C269.093 174.742 269.307 174.848 269.505 174.782C269.699 174.717 269.805 174.509 269.745 174.314C269.744 174.311 269.744 174.307 269.743 174.304H269.743Z" fill="black"/>
<defs>
<linearGradient id="paint0_linear_754_2051" x1="110.987" y1="228.592" x2="-243.587" y2="228.592" gradientUnits="userSpaceOnUse">
<stop stop-color="#E23141"/>
<stop offset="1" stop-color="#FFE1E6"/>
</linearGradient>
<linearGradient id="paint1_linear_754_2051" x1="91.7551" y1="45.7409" x2="52.2631" y2="45.7409" gradientUnits="userSpaceOnUse">
<stop stop-color="#E23141"/>
<stop offset="1" stop-color="#FDEBEF"/>
</linearGradient>
<linearGradient id="paint2_linear_754_2051" x1="138.531" y1="44.0403" x2="-97.5802" y2="44.0403" gradientUnits="userSpaceOnUse">
<stop stop-color="#E23141"/>
<stop offset="1" stop-color="#FDEBEF"/>
</linearGradient>
<linearGradient id="paint3_linear_754_2051" x1="167.434" y1="32.8829" x2="-84.9931" y2="32.8829" gradientUnits="userSpaceOnUse">
<stop stop-color="#E23141"/>
<stop offset="1" stop-color="#FFE1E6"/>
</linearGradient>
<linearGradient id="paint4_linear_754_2051" x1="123.401" y1="169.635" x2="123.401" y2="10.9508" gradientUnits="userSpaceOnUse">
<stop stop-color="#E1707A"/>
<stop offset="1" stop-color="#FFE1E6"/>
</linearGradient>
<linearGradient id="paint5_linear_754_2051" x1="283.389" y1="204.344" x2="127.783" y2="204.344" gradientUnits="userSpaceOnUse">
<stop stop-color="#E23141"/>
<stop offset="1" stop-color="#FFE1E6"/>
</linearGradient>
<linearGradient id="paint6_linear_754_2051" x1="366.606" y1="205.159" x2="-244.36" y2="205.159" gradientUnits="userSpaceOnUse">
<stop stop-color="#C32033"/>
<stop offset="1" stop-color="#EB989F"/>
</linearGradient>
<linearGradient id="paint7_linear_754_2051" x1="171.342" y1="197.27" x2="24.4222" y2="197.27" gradientUnits="userSpaceOnUse">
<stop stop-color="#E23141"/>
<stop offset="1" stop-color="#FDEBEF"/>
</linearGradient>
<linearGradient id="paint8_linear_754_2051" x1="280.703" y1="216.564" x2="133.867" y2="216.564" gradientUnits="userSpaceOnUse">
<stop stop-color="#E23141"/>
<stop offset="1" stop-color="#FFE1E6"/>
</linearGradient>
<linearGradient id="paint9_linear_754_2051" x1="280.703" y1="222.142" x2="133.866" y2="222.142" gradientUnits="userSpaceOnUse">
<stop stop-color="#C32033"/>
<stop offset="1" stop-color="#EB989F"/>
</linearGradient>
<linearGradient id="paint10_linear_754_2051" x1="280.694" y1="214.522" x2="133.857" y2="214.522" gradientUnits="userSpaceOnUse">
<stop stop-color="#E23141"/>
<stop offset="1" stop-color="#FDEBEF"/>
</linearGradient>
<linearGradient id="paint11_linear_754_2051" x1="298.016" y1="211.067" x2="298.016" y2="192.037" gradientUnits="userSpaceOnUse">
<stop stop-color="#E1707A"/>
<stop offset="1" stop-color="#FFE1E6"/>
</linearGradient>
</defs>
</svg>
