<svg width="24" height="24" viewBox="0 0 24 24" fill="none" xmlns="http://www.w3.org/2000/svg">
<path d="M17 12C17 14.7614 14.7614 17 12 17C9.23858 17 7 14.7614 7 12C7 9.23858 9.23858 7 12 7C14.7614 7 17 9.23858 17 12Z" fill="white"/>
<circle cx="12" cy="12" r="11" fill="white"/>
<path d="M11.2108 18.984C9.58321 18.8017 8.18676 18.1279 7.02143 16.9626C5.8561 15.7972 5.18229 14.4008 5 12.7732V11.2108C5.18229 9.58321 5.8561 8.18676 7.02143 7.02143C8.18676 5.8561 9.58321 5.18229 11.2108 5H12.7732C14.4008 5.18229 15.7972 5.8561 16.9626 7.02143C18.1279 8.18676 18.8017 9.58321 18.984 11.2108V12.7732C18.8017 14.4008 18.1279 15.7972 16.9626 16.9626C15.7972 18.1279 14.4008 18.8017 12.7732 18.984H11.2108ZM11.992 17.4606C13.5024 17.4606 14.7914 16.9268 15.8591 15.8591C16.9268 14.7914 17.4606 13.5024 17.4606 11.992C17.4606 10.4816 16.9268 9.19259 15.8591 8.12491C14.7914 7.05723 13.5024 6.52339 11.992 6.52339C10.4816 6.52339 9.19259 7.05723 8.12491 8.12491C7.05723 9.19259 6.52339 10.4816 6.52339 11.992C6.52339 13.5024 7.05723 14.7914 8.12491 15.8591C9.19259 16.9268 10.4816 17.4606 11.992 17.4606ZM11.992 13.5935C11.1326 13.5935 11.8618 13.4242 11.2498 12.8123C10.4295 11.992 10.8592 12.8513 10.8592 11.992C10.8592 11.1326 10.5988 11.8227 11.2108 11.2108C11.8227 10.5988 11.1326 10.4686 11.992 10.4686C12.8513 10.4686 12.2003 10.6379 12.8123 11.2498C13.4242 11.8618 13.2029 11.1717 13.2029 12.0311C13.2029 12.8904 13.4242 12.2003 12.8123 12.8123C12.2003 13.4242 12.8513 13.5935 11.992 13.5935ZM11.992 11.992C11.686 12.298 12.4217 11.992 11.992 11.992C11.992 12.4217 12.298 11.686 11.992 11.992C12.298 12.298 11.992 11.5623 11.992 11.992C12.4217 11.992 11.686 11.686 11.992 11.992C12.298 11.686 11.5623 11.992 11.992 11.992C11.992 11.5623 11.686 12.298 11.992 11.992C11.686 11.686 11.992 12.4217 11.992 11.992C11.5623 11.992 12.298 12.298 11.992 11.992Z" fill="#D0273B"/>
<path d="M5.78125 11.25H7.34371V12.8125H5.78125V11.25Z" fill="#D0273B"/>
<path d="M16.7188 11.25H18.2812V12.8125H16.7188V11.25Z" fill="#D0273B"/>
<path d="M11.249 5.78125H12.8115V7.34371H11.249V5.78125Z" fill="#D0273B"/>
<path d="M11.249 16.7188H12.8115V18.2812H11.249V16.7188Z" fill="#D0273B"/>
<circle cx="12.0312" cy="12.0312" r="1.56246" fill="#D0273B"/>
</svg>
